<svg width="131" height="32" viewBox="0 0 131 32" fill="none" xmlns="http://www.w3.org/2000/svg">
    <g clip-path="url(#clip0)">
        <path d="M110.34 13.9539C110.314 14.0431 110.289 14.1308 110.264 14.22C109.792 15.5095 109.33 16.8033 108.844 18.0871C108.709 18.4438 108.871 18.4651 109.154 18.4891C110.81 18.6222 110.812 18.6278 111.336 17.0382C111.364 16.9519 111.371 16.8571 111.389 16.7665C111.41 16.6773 111.431 16.5867 111.453 16.4975C111.641 16.2484 111.716 15.9611 111.737 15.6553C111.84 15.5803 111.854 15.4741 111.843 15.3595C112.144 14.7267 112.361 14.0657 112.523 13.3863C112.551 13.2985 112.581 13.2122 112.609 13.1244C112.764 12.7224 112.951 12.3289 113.063 11.9156C113.156 11.5702 113.342 11.423 113.675 11.4145C113.816 11.4131 113.957 11.4131 114.098 11.4117C114.239 11.4117 114.38 11.4131 114.519 11.4131C115.85 11.4244 117.181 11.4357 118.514 11.4471C118.589 11.4711 118.662 11.4952 118.737 11.5192C118.87 11.5589 119.004 11.5985 119.138 11.6381C119.221 11.6778 119.304 11.7188 119.387 11.7585C119.387 11.7585 119.392 11.7556 119.392 11.7542C119.5 11.8575 119.61 11.9609 119.718 12.0656C119.732 12.0883 119.749 12.1081 119.766 12.1279C119.993 12.6177 120.02 13.1414 120.018 13.6694C119.999 13.7586 119.979 13.8463 119.959 13.9355C119.649 14.8188 119.366 15.7105 119.172 16.6292C119.061 16.8004 119.008 16.9873 119.017 17.1925C118.439 18.4934 118.476 18.5585 119.724 18.4481C119.863 18.4481 120.004 18.4481 120.144 18.4481C120.458 18.5118 120.749 18.5514 120.844 18.1168C120.982 17.4785 121.145 16.8457 121.297 16.2102C121.488 15.8153 121.566 15.3892 121.638 14.9617C121.712 14.8725 121.745 14.7735 121.71 14.6588C121.778 14.4309 121.845 14.2044 121.913 13.9765C122.234 13.1159 122.764 12.4209 123.54 11.9212C123.675 11.8491 123.81 11.7783 123.944 11.7061C124.271 11.6197 124.599 11.5348 124.926 11.4485C126.802 11.4428 128.68 11.4371 130.556 11.4315C130.842 11.4754 131.121 11.5136 130.938 11.9326C130.876 12.0755 130.877 12.2454 130.849 12.4039C130.82 12.4903 130.792 12.5766 130.762 12.663C130.642 12.8909 130.561 13.1287 130.563 13.3905C130.538 13.4769 130.514 13.5646 130.489 13.651C130.289 14.1011 130.156 14.5725 130.066 15.0566C129.973 15.3864 129.879 15.7176 129.786 16.0474C129.763 16.1479 129.741 16.2484 129.718 16.3489C129.689 16.4352 129.659 16.523 129.629 16.6094C129.084 18.291 128.591 19.9853 128.171 21.7023C128.131 21.7292 128.122 21.7632 128.146 21.8056C128.124 21.8637 128.101 21.9203 128.077 21.9769C128.057 22.0731 128.039 22.168 128.019 22.2642C127.6 23.1036 127.556 24.0662 127.164 24.914C121.186 24.9055 115.207 24.8956 109.228 24.8914C102.288 24.8857 95.3479 24.8829 88.4076 24.8801C88.1977 24.8801 87.9893 24.9084 87.7794 24.9225C87.3145 24.9041 87.1272 24.747 87.3244 24.2403C87.5343 23.6995 87.6568 23.1249 87.8174 22.5657C87.9456 22.5572 88.0738 22.5488 88.2006 22.5403C91.015 22.6096 93.8294 22.6082 96.6438 22.5403C98.2313 22.5516 99.8174 22.5756 101.405 22.5728C105.07 22.5686 108.735 22.5516 112.401 22.5403C113.198 22.6068 113.997 22.6082 114.794 22.5403C115.402 22.5983 116.012 22.5983 116.621 22.5403C116.81 22.5997 116.997 22.5997 117.186 22.5403C119.342 22.5983 121.499 22.5983 123.655 22.5403C124.03 22.4964 124.563 22.8545 124.672 22.1397C124.715 22.0533 124.756 21.9684 124.798 21.8821C124.826 21.8226 124.856 21.7646 124.884 21.7051C124.919 21.6145 124.956 21.5254 124.991 21.4348C125.07 21.1927 125.592 20.8049 124.846 20.8035C122.292 20.7964 119.738 20.7256 117.186 20.8388C117.043 20.7836 116.903 20.7836 116.762 20.8417C116.481 20.7737 116.201 20.7638 115.919 20.8374L115.876 20.8105L115.831 20.8346C115.812 20.6067 115.794 20.3802 115.776 20.1523L115.777 20.1495C115.843 20.1283 115.909 20.107 115.873 20.0136C115.901 19.8763 115.931 19.739 115.959 19.6017C116.09 19.4389 116.118 19.2464 116.114 19.0454C116.163 18.8543 116.211 18.6632 116.26 18.4736C116.311 18.2895 116.36 18.1069 116.411 17.9229C116.442 17.7757 116.474 17.6285 116.505 17.4813C116.663 17.218 116.722 16.9278 116.736 16.6263C116.756 16.5372 116.774 16.4466 116.794 16.3574C116.95 16.0927 117.003 15.8011 117.022 15.4996C117.041 15.4104 117.058 15.3198 117.076 15.2307C117.462 14.2653 117.376 14.0275 116.621 13.9666C116.481 13.9666 116.341 13.9652 116.201 13.9652C115.025 13.8562 115.022 13.8562 114.725 14.9646C114.678 15.1401 114.654 15.3213 114.621 15.4996C114.487 15.6581 114.477 15.8549 114.454 16.0474C114.049 17.4176 113.623 18.7807 113.249 20.1594C113.118 20.6407 112.92 20.8176 112.394 20.8162C106.766 20.7978 101.14 20.8105 95.5127 20.8134C90.4952 20.8162 85.4777 20.8134 80.4602 20.819C80.1813 20.819 79.8292 20.6888 79.7136 21.1333C79.4094 22.3109 79.0953 23.4872 78.7854 24.6635C78.753 24.6932 78.7445 24.7272 78.7614 24.7682C78.5431 24.8886 78.305 24.8475 78.0726 24.8475C66.4064 24.8447 54.7403 24.8418 43.0741 24.8362C40.7316 24.8348 38.389 24.8319 36.0465 24.815C35.8085 24.8135 35.4436 24.9848 35.4028 24.5163C35.4211 24.4257 35.4394 24.3337 35.4563 24.2431C35.5563 24.1695 35.5704 24.0676 35.5479 23.9529C35.6014 23.6245 35.6549 23.2961 35.7084 22.9692C35.9578 22.6209 36.3156 22.6153 36.7015 22.6153C44.8475 22.6266 52.995 22.6294 61.141 22.6337C66.0332 22.6365 70.9267 22.6436 75.8188 22.6308C76.0414 22.6308 76.4034 22.8531 76.502 22.4044C76.6626 22.1368 76.4865 21.8339 76.6555 21.5296C76.9753 20.9549 76.857 20.819 76.1837 20.8176C73.4185 20.8148 70.6534 20.8035 67.8883 20.8275C67.3023 20.8332 67.1164 20.7666 67.3136 20.1042C67.8728 18.2173 68.3377 16.3036 68.8588 14.404C69.011 13.8491 68.811 13.5929 68.2715 13.5604C67.9207 13.5392 67.5629 13.5901 67.2192 13.5349C66.5839 13.4316 66.3811 13.7529 66.2416 14.3049C65.7472 16.2597 65.1964 18.2004 64.6992 20.1552C64.5752 20.6393 64.3851 20.8303 63.8512 20.8219C62.0721 20.7935 60.2916 20.8303 58.5125 20.8417C58.2576 20.8261 58.0012 20.7978 57.7463 20.7978C54.5614 20.795 51.3765 20.785 48.1916 20.8077C47.7211 20.8105 47.4929 20.6577 47.2859 20.2415C46.4196 18.5047 45.511 16.7891 44.6165 15.0651C44.5616 14.857 44.4869 14.6588 44.3278 14.5045C44.3264 14.3814 44.2897 14.278 44.1742 14.2158L44.1785 14.2214C44.1587 13.9964 44.0658 13.8095 43.8939 13.6637C43.8911 13.5491 43.877 13.4401 43.7615 13.3764C43.7207 13.1046 43.5558 13.0466 43.3178 13.1244C43.1783 13.1272 43.0389 13.1287 42.8994 13.1315C42.6163 13.031 42.4557 13.1527 42.3768 13.4217C42.05 14.5385 41.7232 15.6553 41.3964 16.7721C41.3767 16.8641 41.357 16.9547 41.3359 17.0467C40.7442 18.3532 40.7541 18.3915 41.7669 18.5457C41.5725 19.1742 41.3669 19.7914 41.1922 20.417C41.102 20.7383 40.8936 20.7822 40.6118 20.7794C39.8413 20.7695 39.0708 20.7766 38.3003 20.7766C36.3789 20.7737 36.3902 20.778 36.9776 18.9208C37.079 18.5981 37.234 18.4509 37.5523 18.4495C37.6918 18.4481 37.8326 18.4467 37.9721 18.4438C38.2186 18.4905 38.2186 18.2994 38.2637 18.1466C39.1581 15.1698 40.047 12.1916 40.9541 9.21907C41.126 8.65712 40.8795 8.67269 40.4851 8.8015C40.3188 8.73498 40.0498 8.94447 39.9836 8.61183C40.2428 8.06969 40.3921 7.49501 40.4977 6.90616C40.5245 6.81982 40.5513 6.73347 40.578 6.64713C40.6386 6.47019 40.6992 6.29184 40.7583 6.1149C40.8133 6.09225 40.8682 6.06961 40.9246 6.04696C41.1598 6.04554 41.395 6.04413 41.6303 6.04271C41.9106 6.04271 42.1909 6.04271 42.4712 6.04271C42.7586 6.0965 43.0459 6.10641 43.3319 6.04271C43.3967 6.03139 43.4601 6.01865 43.5249 6.00732H43.5305C43.8094 6.00732 44.0897 6.00732 44.3686 6.00732H44.3743C44.4658 6.00732 44.5574 6.00732 44.6489 6.00732H44.6546C44.7461 6.00732 44.8377 6.00732 44.9292 6.00732H44.9349C45.0264 6.00732 45.118 6.00732 45.2096 6.00732H45.2152C45.3068 6.00732 45.3983 6.00732 45.4899 6.00732H45.4955C45.5871 6.00732 45.6786 6.00732 45.7702 6.00732H45.7758C45.8674 6.00732 45.959 6.00732 46.0505 6.00732H46.0561C46.2421 6.06536 46.4266 6.06536 46.6125 6.00732H46.6182C46.7097 6.00732 46.8013 6.00732 46.8929 6.00732H46.8985C46.9901 6.00732 47.0816 6.00732 47.1732 6.00732H47.1788C47.2704 6.00732 47.3619 6.00732 47.4535 6.00732H47.4591C47.8324 6.00732 48.2057 6.00732 48.579 6.00732H48.5846C49.6833 6.1517 50.7863 6.04696 51.8878 6.06678C52.2033 6.23663 52.5203 6.40508 52.8358 6.57494C52.8499 6.62306 52.8809 6.64996 52.9302 6.65703C53.3936 7.31099 53.3119 8.02015 53.1387 8.73781C53.002 8.89351 52.9781 9.09026 52.9443 9.28419C52.8288 9.51208 52.7259 9.74422 52.7245 10.0075C52.5851 10.1646 52.5668 10.3614 52.5499 10.5581C52.3104 11.1654 52.0329 11.75 51.5638 12.2213L51.6061 12.2411L51.5667 12.2171C50.9525 12.5794 50.3031 12.8555 49.6143 13.0381C48.8241 13.0621 48.0338 13.0848 47.245 13.1088C47.0661 13.0551 46.8309 12.9984 46.7323 13.1456C46.6083 13.3311 46.7957 13.5208 46.9013 13.692C47.045 14.0204 47.1887 14.3502 47.3323 14.6786C47.4267 15.0282 47.5507 15.3651 47.7718 15.6567C47.8071 15.7544 47.8423 15.8535 47.8775 15.9511C47.9212 16.0446 47.9662 16.138 48.0099 16.2314C48.1127 16.465 48.2141 16.6985 48.317 16.9321C48.3409 17.1458 48.4156 17.3397 48.5621 17.5011C48.6198 17.6412 48.6776 17.7814 48.7339 17.9215C48.7875 18.3079 48.9903 18.4764 49.3974 18.4636C50.1665 18.4396 50.9384 18.4396 51.7075 18.4651C52.1329 18.4792 52.309 18.2994 52.3132 17.8989C52.5231 17.2959 52.7344 16.6915 52.9443 16.0885C52.9725 15.988 52.9992 15.8875 53.0274 15.7855C53.288 15.2448 53.4669 14.6744 53.6091 14.0926C53.7486 13.9426 53.7726 13.7515 53.7979 13.5604C53.8712 13.4273 53.9458 13.2929 54.0191 13.1598C54.4416 12.6927 54.8825 12.2482 55.4263 11.9198C55.5235 11.8731 55.6207 11.8278 55.7164 11.7811C56.0418 11.682 56.3658 11.5829 56.6912 11.4824C58.0435 11.4612 59.3972 11.4386 60.7494 11.4173C60.8424 11.4187 60.9368 11.4202 61.0297 11.4202C61.2171 11.4796 61.4058 11.4824 61.5932 11.4202C62.5271 11.5037 62.5243 11.5023 62.2186 12.4351C61.9932 13.1216 61.7749 13.8109 61.5538 14.4989C61.4312 14.6149 61.4256 14.7706 61.4101 14.9221C61.1298 15.4515 60.9819 16.029 60.8142 16.5994C60.6635 16.9703 60.4945 17.3355 60.455 17.7417C60.1029 18.492 60.1141 18.5061 61.0312 18.4339C61.3115 18.4339 61.5918 18.4325 61.8707 18.4325C62.0947 18.4948 62.2933 18.499 62.3679 18.2173C62.5694 17.4487 62.9215 16.724 63.0272 15.9271L63.0342 15.8761C63.0652 15.7983 63.0976 15.7204 63.1286 15.6426C63.1497 15.5789 63.1694 15.5166 63.1906 15.4529C63.4723 14.7848 63.7047 14.1011 63.8329 13.3863C63.8597 13.2999 63.8878 13.2136 63.9146 13.1272C64.04 12.7847 64.2062 12.4521 64.278 12.0982C64.3752 11.6169 64.6231 11.3904 65.1077 11.4173C66.7487 11.4796 68.3912 11.4824 70.0322 11.4159C70.1252 11.4187 70.2196 11.4202 70.3125 11.423C70.3985 11.4471 70.4844 11.4711 70.5717 11.4952C71.0309 11.6849 71.4042 11.9764 71.6409 12.4237C71.6775 12.6502 71.7141 12.8767 71.7507 13.1032C71.7479 13.198 71.7437 13.2929 71.7409 13.3891C71.7197 13.525 71.7 13.6609 71.6789 13.7954C71.4267 14.3828 71.2394 14.9914 71.1028 15.6171C71.0549 15.7601 71.007 15.9044 70.9591 16.0474C70.8351 16.2725 70.7365 16.506 70.7309 16.7693L70.6957 16.7976L70.7084 16.8401C70.6844 16.908 70.6605 16.9774 70.6351 17.0453C70.5914 17.1798 70.5464 17.3157 70.5027 17.4502C70.4168 17.6865 70.3182 17.9201 70.2463 18.1607C70.1407 18.5118 70.3759 18.4736 70.5928 18.4438C70.7337 18.4424 70.8746 18.441 71.014 18.4396C71.0605 18.4396 71.1056 18.4382 71.1521 18.4382C71.2464 18.4382 71.3394 18.4382 71.4338 18.4382C71.669 18.4594 71.9648 18.6109 71.9846 18.1763C72.048 17.9923 72.1113 17.8097 72.1747 17.6257C72.3114 17.4063 72.4156 17.1741 72.417 16.908C72.5452 16.7452 72.5748 16.5513 72.5917 16.3546C72.7663 16.1536 72.7818 15.8903 72.8678 15.6539C73.365 14.295 73.6129 12.8017 74.9046 11.8717C74.9765 11.8349 75.0469 11.7995 75.1187 11.7627C75.3962 11.6721 75.6737 11.5801 75.9512 11.4895C77.6599 11.474 79.3685 11.4612 81.0772 11.4442C81.3336 11.4414 81.5899 11.423 81.8463 11.4117C81.9871 11.4697 82.128 11.4711 82.2689 11.4103C82.297 11.4442 82.3323 11.4499 82.3703 11.4301C82.4576 11.9269 82.0928 12.3374 82.1041 12.8201C81.9294 13.1272 81.8533 13.4599 81.835 13.8095C81.4181 14.8612 81.1378 15.954 80.8772 17.051C80.7208 17.3029 80.6856 17.5903 80.6377 17.8734C80.4306 18.2726 80.3137 18.6165 81.0011 18.4622C83.2521 18.5316 85.5031 18.5019 87.754 18.4537C87.8484 18.4537 87.9414 18.4537 88.0358 18.4552C88.1766 18.4566 88.3175 18.458 88.4569 18.4594C88.9697 18.5854 88.9091 18.1777 88.9823 17.8932C89.0077 17.8054 89.0345 17.7163 89.0598 17.6285C89.419 16.5457 89.781 15.4628 90.1332 14.3785C90.2078 14.1492 90.2895 13.8817 89.8627 13.9695C89.6289 13.968 89.3951 13.968 89.1612 13.9666C89.0274 13.9553 88.8922 13.944 88.7584 13.9341L88.7556 13.9327C88.8415 13.2306 89.1767 12.5993 89.3275 11.9184C89.4232 11.481 89.674 11.3338 90.0754 11.4173C90.7812 11.5645 91.1051 11.2333 91.2066 10.5737C91.2347 10.3911 91.2981 10.2142 91.3446 10.0344C91.3925 9.8886 91.4404 9.74422 91.4897 9.59842C91.5672 9.37902 91.6432 9.16104 91.7221 8.94164C91.8137 8.68826 91.6939 8.62315 91.4601 8.59343C91.1277 8.55096 90.6276 8.78169 90.5051 8.46886C90.398 8.19143 90.6628 7.77103 90.7572 7.41149C90.8107 7.20908 90.8488 7.00383 90.8953 6.8L90.8868 6.80425C90.9121 6.7448 90.9361 6.68534 90.9615 6.62448C90.9939 6.53672 91.0277 6.45037 91.0601 6.36261C91.0939 6.26919 91.1277 6.17718 91.1615 6.08376L91.1544 6.09084C91.6151 6.07385 92.0771 6.05687 92.5377 6.03988C94.976 6.03988 97.4129 6.03988 99.8512 6.03988C99.9921 6.04413 100.133 6.04979 100.275 6.05404C100.365 6.06678 100.456 6.07951 100.544 6.09225C102.208 6.72639 102.584 7.52473 102.037 9.25588C102.002 9.3677 101.961 9.47811 101.926 9.58993C101.322 11.5122 100.719 13.4344 100.116 15.3566C99.9879 15.5152 99.9372 15.7006 99.9217 15.8988C99.7456 16.4069 99.5625 16.9123 99.3963 17.4233C99.0258 18.5627 99.03 18.5641 100.275 18.458C100.416 18.458 100.557 18.458 100.698 18.458C100.985 18.5443 101.184 18.4934 101.273 18.1593C101.396 17.6908 101.553 17.2322 101.695 16.7679C101.829 16.6108 101.856 16.4168 101.885 16.2229C102.005 16.046 102.088 15.8563 102.084 15.6383C102.112 15.5506 102.14 15.4642 102.17 15.3765C102.221 15.2392 102.27 15.1004 102.321 14.9631C102.364 14.8202 102.408 14.6772 102.452 14.5342C102.545 14.4578 102.564 14.3573 102.547 14.2441C102.547 14.2441 102.543 14.2511 102.542 14.2511C102.567 14.1988 102.591 14.1478 102.616 14.0954C102.698 13.8647 102.781 13.6354 102.863 13.4047C103.253 12.6531 103.742 11.9892 104.504 11.5716C104.594 11.5461 104.684 11.5207 104.774 11.4952C104.884 11.5292 104.981 11.5108 105.065 11.4272C106.329 11.4202 107.593 11.4131 108.858 11.406C110.305 11.6891 110.655 12.2256 110.341 13.6779C110.355 13.7685 110.351 13.8619 110.34 13.9539ZM93.928 18.4835C93.928 18.4849 93.928 18.4849 93.928 18.4863C94.4436 18.4863 94.9605 18.5033 95.4747 18.482C96.2945 18.4495 96.71 18.1225 96.9467 17.3313C97.2552 16.2979 97.5496 15.259 97.8482 14.2228C98.251 12.8257 98.6722 11.4329 99.0511 10.0301C99.3047 9.08602 98.9483 8.63306 97.989 8.59767C97.6608 8.58493 97.3326 8.5821 97.0044 8.59484C96.2832 8.62457 95.4211 8.32024 94.8788 8.71516C94.3337 9.1115 94.4027 10.0415 94.1224 10.7096C94.1139 10.7308 94.1111 10.7563 94.1027 10.7775C93.9576 11.1045 93.9787 11.3282 94.4182 11.3013C94.7816 11.2786 94.7788 11.4655 94.6971 11.7429C94.5309 12.3048 94.3675 12.8682 94.2449 13.4415C94.1618 13.8307 93.9942 14.0148 93.5787 13.9581C93.3265 13.9227 93.073 13.9029 92.9772 14.2653C92.6377 15.535 92.2799 16.7976 91.9193 18.0616C91.8306 18.3745 91.9207 18.4934 92.2419 18.4877C92.8025 18.4764 93.3646 18.4835 93.928 18.4835ZM76.202 18.4948C76.4358 18.4948 76.6738 18.4636 76.902 18.5004C77.5261 18.6038 77.8148 18.3575 77.9571 17.7333C78.1754 16.7778 78.5065 15.8492 78.7685 14.9037C79.1347 13.5802 79.1262 13.5774 77.7176 13.617C76.4161 13.6538 75.8907 14.0572 75.523 15.334C75.361 15.8945 75.2272 16.465 75.0793 17.0298C74.6961 18.4891 74.6961 18.4891 76.202 18.4948ZM45.9406 10.8129C45.9406 10.8115 45.9406 10.8101 45.9406 10.8101C46.6435 10.8101 47.3493 10.7832 48.0507 10.8172C48.717 10.8497 49.1748 10.5355 49.5228 10.0273C49.7312 9.72299 49.9932 9.36062 49.7819 8.99259C49.6002 8.67411 49.1988 8.62881 48.841 8.62457C47.7859 8.61466 46.7309 8.61466 45.6758 8.61466C43.8967 8.61324 43.9108 8.61891 43.3685 10.3048C43.2262 10.7478 43.3558 10.8299 43.7601 10.8186C44.4869 10.7988 45.2138 10.8129 45.9406 10.8129ZM56.4405 18.4495C56.6039 18.4495 56.7715 18.4254 56.9307 18.4537C57.5491 18.5613 57.8449 18.3221 57.9885 17.6936C58.2125 16.7141 58.5435 15.7586 58.821 14.7919C59.1591 13.6113 59.1563 13.6099 57.8899 13.6156C56.7405 13.6213 56.356 13.9185 56.0531 15.0367C55.8573 15.7601 55.6559 16.4805 55.4643 17.2053C55.1375 18.4452 55.1403 18.4452 56.4405 18.4495ZM103.652 18.4863C104.397 18.4863 105.049 18.4651 105.698 18.4934C106.107 18.5118 106.327 18.3957 106.455 17.9739C106.7 17.1699 107.015 16.3871 107.301 15.5944C107.879 13.9935 107.825 13.9369 106.105 13.9114C105.465 13.9015 104.977 14.0983 104.779 14.7098C104.384 15.9299 104.042 17.1656 103.652 18.4863ZM124.516 18.4806C124.82 18.4806 125.126 18.4736 125.43 18.4835C125.674 18.492 125.821 18.4014 125.898 18.1607C126.311 16.8896 126.736 15.6228 127.149 14.3516C127.194 14.2143 127.283 14.0501 127.035 13.9525C125.942 13.5208 124.449 14.1761 124.071 15.3014C123.863 15.9228 123.727 16.5683 123.558 17.2024C123.216 18.4835 123.216 18.4835 124.516 18.4806Z"
              fill="white"/>
        <path d="M23.2702 3.38728C23.2504 3.43541 23.2307 3.48495 23.211 3.53308C22.9166 3.97047 22.6926 4.44183 22.5208 4.94008L22.5151 4.95423C21.8432 6.29187 21.1769 7.63234 20.4924 8.9629C20.4191 9.10587 20.4487 9.17381 20.5403 9.24883C20.6473 9.33659 20.7628 9.31961 20.8417 9.20495C21.0051 8.96715 21.1812 8.67698 21.3643 8.5241C22.7954 7.33367 23.8674 5.81768 25.1267 4.4758C26.0846 3.45664 26.062 3.43541 27.0974 4.27763C27.3509 4.53383 27.6045 4.79145 27.858 5.04907C27.9947 5.19911 28.1299 5.35057 28.2665 5.50061C28.7299 5.93658 28.5173 6.28904 28.1285 6.62027C28.0792 6.66273 28.0313 6.70378 27.982 6.74625C27.4777 7.07181 27.0664 7.5007 26.6537 7.9296L26.6198 7.95507C25.1464 9.25167 23.6744 10.5468 22.201 11.8434C22.2461 11.9156 22.2912 11.9878 22.3362 12.06C24.4492 10.997 26.5621 9.93252 28.6736 8.86948L28.6877 8.86382C29.1934 8.78597 29.6554 8.14475 30.0625 8.38538C30.4287 8.60195 30.5372 9.25733 30.7626 9.71736C30.8133 9.82069 30.8795 9.91553 30.9373 10.0146L30.9358 10.0104C30.9513 10.2779 31.0598 10.5058 31.2288 10.7096C31.2598 10.8101 31.2894 10.9092 31.3204 11.0097C31.3119 11.0253 31.2922 11.0493 31.2964 11.055C31.3176 11.0805 31.3443 11.1003 31.3683 11.1229L31.3711 11.1314C31.3556 11.2503 31.3951 11.348 31.4923 11.4202C31.4908 11.5009 31.4894 11.5801 31.488 11.6608C30.3766 12.0529 29.2652 12.445 28.1524 12.8371L28.1341 12.8414C27.8693 12.8541 27.6298 12.9319 27.4228 13.1018C27.327 13.1259 27.2312 13.1485 27.1354 13.1726C27.0889 13.1966 27.0438 13.2207 26.9974 13.2448H26.9988C25.6225 13.5916 24.3125 14.1351 22.9363 14.5824C23.2406 14.7424 24.2421 14.7041 25.3126 14.5159C25.5465 14.5074 25.7803 14.4975 26.0141 14.489C27.2889 14.5173 28.5595 14.4819 29.8174 14.2427C30.2372 14.2257 30.6583 14.2087 31.0781 14.1917C31.4106 14.1988 31.7416 14.2045 32.074 14.2115L32.0853 14.2328C32.1022 14.8457 32.1191 15.4586 32.1346 16.0715C32.1332 16.2569 32.1318 16.4424 32.1304 16.6278C32.1191 16.9123 32.1092 17.1954 32.098 17.4799C32.0529 17.6441 31.95 17.746 31.781 17.7758C31.688 17.7729 31.5951 17.7701 31.5007 17.7673C28.3116 17.7021 25.1225 17.7064 21.9334 17.7644C21.839 17.7644 21.7446 17.7644 21.6502 17.7644C20.9473 17.705 20.2444 17.7036 19.5415 17.7658C19.4472 17.7658 19.3528 17.7658 19.2584 17.7658C15.5537 17.7036 11.8491 17.705 8.14442 17.7658C7.8627 17.6993 7.58097 17.6993 7.29925 17.7658C6.22166 17.705 5.14266 17.705 4.06365 17.7658C3.82842 17.7021 3.59318 17.7021 3.35935 17.7658C3.26638 17.7658 3.172 17.7658 3.07903 17.7658C2.79731 17.6993 2.51558 17.6993 2.23386 17.7658C1.85917 17.7078 1.48448 17.7078 1.10978 17.7673C1.01541 17.7687 0.92103 17.7701 0.826653 17.7715C0.581553 17.6823 0.298421 17.7899 0.067408 17.6229C0.0843114 17.3355 0.0913545 17.0482 -0.0114746 16.7722C-0.010066 16.1635 -0.00865738 15.5548 -0.00724876 14.9448C0.0279667 14.707 0.0631821 14.4692 0.0983975 14.2299C0.153334 14.2087 0.206861 14.1889 0.261797 14.1677C0.449143 14.2328 0.639307 14.2384 0.830878 14.1903C1.25065 14.2073 1.67182 14.2257 2.09159 14.2427C2.55503 14.3757 3.02832 14.3729 3.50303 14.3488C3.68615 14.3701 3.86927 14.3899 4.05098 14.4111C4.71162 14.438 5.37367 14.4663 6.03431 14.4932C6.26814 14.5017 6.50197 14.5102 6.7358 14.5187C7.51758 14.6079 8.29373 14.7834 9.08256 14.7721C9.10228 14.6942 9.122 14.6164 9.14172 14.5385C8.0106 14.1677 6.88089 13.7954 5.74977 13.4245C5.70329 13.4132 5.6568 13.4019 5.61032 13.3891C5.56947 13.375 5.53003 13.3594 5.48918 13.3453C5.38916 13.3113 5.28915 13.2787 5.19055 13.2448C4.55526 12.956 3.90166 12.7182 3.21848 12.571C3.17482 12.5611 3.12974 12.5498 3.08607 12.5399C3.041 12.5186 2.99451 12.496 2.94944 12.4747C2.8621 12.4464 2.77477 12.4181 2.68603 12.3898C2.6325 12.3657 2.57756 12.3417 2.52404 12.3162C2.42966 12.295 2.33528 12.2723 2.2395 12.2511C1.80282 11.8717 0.897083 12.0798 0.792846 11.4995C0.702694 11.0012 1.13373 10.4095 1.33094 9.85891C1.34643 9.81645 1.34221 9.7669 1.34784 9.72019C1.50279 9.45833 1.65069 9.19363 1.7 8.88788C1.95214 8.27639 2.33246 8.2226 2.83534 8.60903C2.93676 8.68688 3.0903 8.70104 3.21848 8.7435C3.28328 8.84967 3.3847 8.88081 3.50162 8.88081C3.74953 9.08888 4.02985 9.23185 4.3482 9.29696L4.35101 9.29838C5.98923 10.1264 7.62605 10.9559 9.26427 11.784C9.36851 11.8364 9.49247 11.8986 9.55726 11.7571C9.58403 11.699 9.53472 11.5731 9.4812 11.515C8.69237 10.6813 7.93031 9.81503 6.89357 9.26582C6.90202 9.22335 6.89075 9.18797 6.85976 9.15683C6.8823 9.05916 6.82173 9.0266 6.74285 9.00678C6.69213 8.9629 6.64283 8.92044 6.59212 8.87656C6.30336 8.54817 6.00332 8.23251 5.61877 8.01311C5.57228 7.97065 5.52721 7.92818 5.48072 7.88572C4.937 7.38039 4.40877 6.85524 3.84391 6.37539C3.55514 6.13051 3.55374 5.95357 3.80024 5.69878C4.23691 5.24582 4.6426 4.76314 5.08913 4.32151C6.03713 3.38587 6.04417 3.39436 6.92174 4.34982C7.0302 4.4673 7.15839 4.5678 7.27671 4.6768L7.27108 4.67114C7.38658 4.92309 7.58097 5.10569 7.79508 5.27272L7.83593 5.24441L7.79931 5.27838C8.55996 6.24375 9.39527 7.14117 10.2588 8.01169C10.3066 8.06407 10.3545 8.11644 10.4024 8.16881C10.8687 8.70529 11.3363 9.24317 11.8026 9.77964C11.8632 9.73152 11.9237 9.68339 11.9857 9.63526C11.6744 8.94592 11.3871 8.24383 10.9631 7.60545C10.9602 7.43842 10.8884 7.30395 10.7729 7.18788C10.7011 6.92035 10.5954 6.66981 10.3982 6.46739C10.401 6.30037 10.3264 6.16873 10.2109 6.05407C10.1813 6.00028 10.1503 5.94649 10.1207 5.8927C10.1334 5.84316 10.1193 5.80494 10.0756 5.77805C9.62488 4.82825 9.18116 3.87421 8.71914 2.93008C8.27542 2.02558 8.26697 2.02983 9.05439 1.53441C9.08256 1.53582 9.10791 1.52875 9.12904 1.51317C9.51923 1.36596 9.91083 1.22441 10.2996 1.07296C11.6096 0.564796 11.6082 0.564796 12.0984 1.83449C12.1224 1.89819 12.1688 1.95198 12.2041 2.01143C12.1857 2.05672 12.1984 2.08928 12.2421 2.11193C12.3111 2.51251 12.4365 2.89186 12.6407 3.24432C12.652 3.28962 12.6633 3.3335 12.6759 3.37879C13.3352 5.32934 13.9944 7.2813 14.6522 9.23185C14.7058 9.21911 14.7593 9.20495 14.8142 9.19221C14.7382 8.24242 14.6607 7.29262 14.5846 6.34283C14.5705 6.10927 14.555 5.8743 14.541 5.64075C14.5283 4.69661 14.4846 3.7539 14.3282 2.81967C14.3184 2.5847 14.3099 2.34973 14.3001 2.11617C14.2663 1.4608 14.2325 0.804014 14.1972 0.148641V0.147226C15.2875 -0.0679287 16.3848 -0.00423162 17.4836 0.060881C17.8399 0.0821133 17.954 0.212339 17.9259 0.581782C17.8484 1.60801 17.8146 2.63849 17.7639 3.66755C17.7484 3.94923 17.7329 4.23092 17.7188 4.5126C17.5117 5.98754 17.5948 7.48372 17.3216 8.953C17.4004 8.97423 17.4807 8.99405 17.5596 9.01528C18.0667 7.51203 18.5724 6.01019 19.0795 4.50694C19.0908 4.46023 19.1035 4.41352 19.1147 4.36681C19.1302 4.32576 19.1471 4.28471 19.1626 4.24366C19.1922 4.14457 19.2232 4.04407 19.2528 3.94499C19.7204 2.89753 20.067 1.80901 20.3825 0.70776L20.3839 0.704929C21.1572 0.672373 21.8066 1.07296 22.4856 1.34048C23.8885 1.89253 23.8815 1.91093 23.2814 3.25281C23.2786 3.29386 23.2786 3.3434 23.2702 3.38728Z"
              fill="white"/>
        <path d="M4.63009 25.7195C7.91358 25.7195 11.1985 25.7195 14.482 25.7195C15.1412 25.7818 15.8004 25.7761 16.4597 25.7237C20.0221 25.7223 23.583 25.7209 27.1454 25.7195C27.6582 25.7506 28.1695 25.7803 28.6822 25.8115C28.6372 25.8922 28.5935 25.9729 28.5484 26.0535C28.3371 26.1923 28.1892 26.3833 28.0892 26.6141C27.9582 26.7485 27.8272 26.8844 27.6962 27.0189C27.506 27.1208 27.3595 27.2652 27.2778 27.4676L27.2807 27.4648C27.0792 27.5497 26.9426 27.7012 26.8369 27.8866C26.7947 27.9234 26.7524 27.9602 26.7102 27.997C25.7791 28.6736 24.8494 29.3502 23.9183 30.0268C23.8253 30.0792 23.7324 30.1316 23.6408 30.1839C23.4563 30.2052 23.2929 30.2675 23.1745 30.4203C23.0816 30.467 22.99 30.5138 22.897 30.559L22.8548 30.5378L22.8337 30.5859C22.7674 30.6114 22.7012 30.6369 22.635 30.661C22.566 30.6213 22.5378 30.6595 22.5223 30.7204C22.4716 30.7374 22.4209 30.7544 22.3702 30.7728C21.3856 31.0856 20.3996 31.3998 19.4149 31.7127C19.322 31.7282 19.2276 31.7424 19.1346 31.758C18.5712 31.8372 18.0091 31.9165 17.4457 31.9958C16.5991 31.9972 15.7525 31.9972 14.906 31.9986C14.3003 31.9193 13.6945 31.8401 13.0888 31.7594C12.9902 31.7452 12.893 31.7311 12.7944 31.7183C12.4888 31.5584 12.1577 31.5032 11.8197 31.4777C11.7239 31.4607 11.6267 31.4451 11.5309 31.4282C11.3154 31.2909 11.0844 31.2017 10.8252 31.196C10.7632 31.1819 10.7012 31.1677 10.6393 31.1536L10.6167 31.1139L10.604 31.1436C10.4815 31.0984 10.3589 31.0545 10.2364 31.0092L10.2068 30.9667L10.1617 30.9865C10.0547 30.9455 9.94903 30.9044 9.84198 30.8634C9.68421 30.7105 9.48982 30.6454 9.27712 30.6185C9.23064 30.6058 9.18556 30.5916 9.13908 30.5789C9.09541 30.5548 9.05033 30.5307 9.00667 30.5081C8.95314 30.4869 8.8982 30.4642 8.84468 30.443C8.80523 30.4175 8.76438 30.392 8.72494 30.3665C8.6686 30.3453 8.61225 30.3255 8.55591 30.3043C8.51929 30.283 8.48266 30.2618 8.44745 30.2406C8.31644 30.1287 8.1784 30.0311 7.9981 30.0212C7.95865 29.9957 7.92062 29.9688 7.88118 29.9433C7.83329 29.9192 7.7868 29.8952 7.73891 29.8725C7.63608 29.7168 7.48254 29.6446 7.30787 29.6064C7.24449 29.5045 7.15293 29.4507 7.03179 29.4465C6.92614 29.3021 6.79091 29.1988 6.61202 29.1634L6.61483 29.1648C6.46552 28.9695 6.27395 28.8336 6.04434 28.7486C5.92039 28.6467 5.79784 28.5462 5.67388 28.4443C5.55978 28.2589 5.41188 28.1145 5.19777 28.0508C5.14846 28.0027 5.09916 27.9531 5.04986 27.905C4.51881 27.2029 3.84831 26.6042 3.47784 25.7818C3.81873 25.7619 4.16102 25.7435 4.50191 25.7237L4.5653 25.7464L4.63009 25.7195Z"
              fill="white"/>
        <path d="M17.7232 23.5282C16.9259 23.4645 16.1287 23.4532 15.3314 23.5325C15.068 23.565 15.0821 23.7689 15.0694 23.9571C15.0271 23.9826 15.0173 24.018 15.037 24.0633C15.013 24.1199 14.9877 24.1751 14.9623 24.2317C14.9412 24.3266 14.9187 24.4214 14.8975 24.5148C14.851 24.6068 14.806 24.7003 14.7595 24.7923L14.7637 24.7894C14.3186 24.7979 13.8735 24.8107 13.4283 24.8121C9.88989 24.8234 6.35285 24.8333 2.8144 24.8432C2.73129 24.7767 2.64678 24.7102 2.56367 24.6451C2.52 24.4653 2.40309 24.3379 2.26363 24.2289C2.27913 24.1935 2.27913 24.1595 2.26363 24.1242C4.65124 24.1157 7.03744 24.1043 9.42504 24.0987C10.8055 24.0944 12.1873 24.0987 13.5678 24.0958C13.8382 24.0958 14.2031 24.1779 14.2017 23.7561C14.1988 23.2706 13.7833 23.5113 13.5636 23.4971C12.9579 23.4589 12.3465 23.4759 11.7394 23.4844C11.4225 23.4886 11.3154 23.3895 11.4351 23.0682C11.6098 22.5968 11.7633 22.117 11.9127 21.6371C11.9789 21.4234 12.1141 21.1601 11.7577 21.0681C11.4802 20.9959 11.2619 21.061 11.1661 21.3866C11.0055 21.9259 10.8083 22.4525 10.6463 22.9918C10.5477 23.3202 10.3998 23.4943 10.0124 23.4886C8.58551 23.4674 7.15717 23.4745 5.73024 23.4929C5.39499 23.4971 5.22032 23.3754 5.10904 23.0654C4.88789 22.4482 4.64138 21.8396 4.39346 21.2337C4.285 20.9704 4.0568 20.7029 3.88213 21.1077C3.65394 21.6357 3.27361 22.1326 3.43701 22.8035C3.51589 23.1262 3.37785 23.5113 2.87215 23.4858C2.66509 23.4759 2.4552 23.5127 2.24673 23.5282C2.0946 23.4858 1.90725 23.4943 1.8819 23.272C1.97487 23.1914 1.9974 23.088 1.97205 22.9719C2.06361 22.8757 2.15517 22.7809 2.24532 22.6846C2.34815 22.7087 2.41858 22.6733 2.4538 22.5728C2.5355 22.3336 2.6172 22.0943 2.6989 21.8551C3.19473 20.877 3.50885 19.8522 3.49336 18.7425C3.54547 18.6873 3.59759 18.6306 3.64971 18.5754C3.83847 18.5712 4.02863 18.5655 4.21738 18.5613C4.68645 18.5613 5.15552 18.5613 5.62459 18.5627C5.66967 18.5641 5.71334 18.5641 5.75841 18.5655C6.08662 18.6236 6.41624 18.6236 6.74444 18.5613C7.16844 18.6321 7.39523 18.867 7.37128 19.3115C7.34874 19.4035 7.3262 19.4955 7.30507 19.5875C7.10646 19.8267 7.05716 20.1311 6.95151 20.4113C6.90643 20.4226 6.88249 20.451 6.88249 20.4991L6.82333 20.5104L6.81347 20.5699C6.55851 20.7369 6.2951 20.9266 5.98238 20.8997C5.20905 20.8331 5.16961 21.1799 5.45274 21.756C5.52458 21.9004 5.57811 22.0618 5.60206 22.2217C5.66122 22.6365 5.90773 22.7073 6.28946 22.7214C7.03321 22.7483 6.96982 22.1113 7.13745 21.7164C7.69103 20.4099 8.72919 19.981 10.1124 20.55C9.87721 21.1007 9.62788 21.6456 9.41377 22.2048C9.35884 22.3491 9.08416 22.5884 9.47012 22.6903C9.7279 22.7582 9.91665 22.6648 10.0012 22.3874C10.1308 21.9698 10.2716 21.555 10.4083 21.1389C10.5195 21.0228 10.5702 20.8827 10.566 20.7227C10.6083 20.6279 10.6519 20.5331 10.6942 20.4382C11.2084 20.4255 11.7225 20.4 12.2366 20.4042C12.8621 20.4113 13.0198 20.6449 12.8367 21.255C12.7832 21.4347 12.6747 21.6018 12.648 21.7829C12.6043 22.0901 12.1183 22.5034 12.5339 22.662C13.0156 22.8446 13.0198 22.209 13.141 21.9018C13.7213 20.4269 13.7622 20.383 15.3286 20.3816C15.4229 20.3816 15.5187 20.3943 15.6089 20.3788C16.2526 20.2726 16.2498 20.5713 16.0498 21.0426C15.8765 21.4517 15.7582 21.8849 15.5934 22.2982C15.4666 22.6167 15.5765 22.7242 15.8906 22.72C16.3822 22.7143 16.8794 22.6804 17.3668 22.7285C17.9669 22.7879 18.2374 22.5317 18.2754 21.9613L18.3219 21.9259L18.3036 21.8735C18.3655 21.7291 18.4275 21.5834 18.4895 21.439C18.5416 21.1559 18.0641 21.0426 18.2599 20.7142C18.3599 20.5897 18.4585 20.4637 18.5585 20.3391C18.8571 20.4297 18.9487 20.2641 18.9656 20.0079C19.0797 19.8918 19.1459 19.7574 19.1149 19.5889C19.1515 19.4615 19.0811 19.4587 18.9896 19.4799C18.7233 18.8982 19.0149 18.6575 19.5474 18.5627C19.6896 18.5627 19.8319 18.5641 19.9742 18.5641C20.5348 18.6236 21.0968 18.6264 21.6575 18.5627C21.9984 18.6221 22.3139 18.7269 22.49 19.0609C22.6379 19.6002 22.1942 19.9697 22.097 20.4396C21.935 20.6463 21.8519 20.8841 21.8209 21.1417C21.7814 21.17 21.7702 21.2068 21.7885 21.2521C21.7617 21.3073 21.7364 21.3625 21.7096 21.4177C21.6434 21.5989 21.5772 21.7815 21.5096 21.9627C21.4842 22.0151 21.4589 22.0675 21.4321 22.1212C21.4053 22.2147 21.38 22.3067 21.3532 22.4001C21.1743 22.6322 21.218 22.7327 21.5194 22.6818C22.0772 22.7455 21.9547 22.2685 22.073 21.9825C22.1688 21.9103 22.2153 21.8155 22.1998 21.6938L22.2097 21.6655L22.2561 21.64L22.2322 21.6003C22.2759 21.4928 22.3195 21.3852 22.3618 21.2776C22.3857 21.2337 22.4097 21.1898 22.4322 21.1474C22.4632 21.0695 22.4928 20.9903 22.5238 20.9124C22.6675 20.7581 22.8097 20.6024 22.9534 20.4481C23.5718 20.4212 24.2014 20.2146 24.7945 20.5727C24.9001 21.1686 24.524 21.6329 24.3733 22.1595C24.3254 22.3251 24.0479 22.5431 24.3423 22.6832C24.5874 22.8007 24.8311 22.7271 24.9396 22.4043C25.1325 21.8353 25.3495 21.2762 25.5565 20.7128C25.5777 20.6435 25.6002 20.5741 25.6213 20.5047C25.9185 20.3037 26.2749 20.4694 26.5848 20.349C26.9792 20.4736 27.4948 20.2202 27.7666 20.727C27.7258 21.2705 27.4751 21.7546 27.3328 22.2699C27.2934 22.4114 27.1511 22.6068 27.3849 22.686C27.5821 22.7525 27.816 22.7625 27.916 22.4992C27.9991 22.2812 28.078 22.059 28.1371 21.8339C28.2921 21.2535 28.5245 20.7298 29.0753 20.4142L29.1048 20.4085C29.6415 20.4057 30.1782 20.4042 30.7163 20.4014C30.9304 20.4 31.1558 20.3816 31.1445 20.7015C31.0403 20.8827 30.936 21.0639 30.9459 21.2847C30.9318 21.2918 30.905 21.2988 30.905 21.3073C30.9022 21.3356 30.9093 21.364 30.9135 21.3923C30.8783 21.4956 30.8431 21.5975 30.8064 21.7008C30.6346 21.9047 30.5895 22.1538 30.5557 22.4072C30.536 22.4751 30.5163 22.5431 30.498 22.611C30.3543 22.8007 30.2726 23.013 30.2585 23.2508C30.0655 23.7689 29.8725 24.2884 29.6796 24.8064C25.8242 24.8107 21.9688 24.8008 18.1148 24.8362C17.4598 24.8418 17.3387 24.6507 17.5809 24.0973L17.5823 24.0958C21.1194 24.0902 24.6564 24.0859 28.1949 24.0803C28.3583 24.0803 28.5231 24.0789 28.6865 24.0831C28.9668 24.0916 29.071 23.8722 29.0837 23.6769C29.1034 23.3612 28.8231 23.4929 28.6682 23.4872C28.0357 23.4688 27.4032 23.456 26.7708 23.4688C26.3904 23.4759 26.2552 23.3725 26.4045 22.9819C26.5623 22.5657 26.6834 22.1368 26.8144 21.7107C26.875 21.514 26.9919 21.2833 26.6693 21.204C26.4214 21.1431 26.2087 21.1785 26.1129 21.4744C25.9904 21.8537 25.7833 22.2161 25.7256 22.6025C25.6101 23.3839 25.1649 23.5084 24.4592 23.4985C22.2167 23.4716 19.9685 23.5141 17.7232 23.5282ZM19.6784 22.7058C20.2122 22.812 20.5095 22.5968 20.663 22.0717C20.8602 21.3979 21.1278 20.7454 21.3532 20.0801C21.4194 19.8862 21.5237 19.6172 21.2941 19.5082C20.9532 19.3455 20.5235 19.3143 20.2108 19.487C19.9643 19.6229 19.7699 19.9838 19.9221 20.3264C20.0643 20.6463 19.9235 20.986 19.753 21.0851C19.3699 21.3073 19.3262 21.6711 19.1783 21.9981C18.9459 22.5133 18.96 22.8658 19.6784 22.7058ZM14.2242 22.7073C14.5031 22.8035 14.6637 22.6436 14.751 22.352C14.8172 22.1269 14.9172 21.9117 14.9722 21.6853C15.0173 21.5027 15.244 21.2705 14.9806 21.1318C14.7482 21.0087 14.4735 21.0709 14.2679 21.2734C13.9847 21.5508 13.9383 21.9372 13.8101 22.2869C13.6777 22.6478 13.8411 22.7582 14.2242 22.7073ZM8.95034 21.3555C8.98978 21.1488 8.88132 21.1092 8.75877 21.0993C8.51789 21.0809 8.26153 21.0879 8.14602 21.3371C8.00797 21.6329 7.91078 21.9486 7.81218 22.2614C7.76851 22.4001 7.6206 22.6025 7.86148 22.6719C8.07277 22.7313 8.37844 22.8162 8.5024 22.5657C8.69538 22.168 8.8137 21.7334 8.95034 21.3555ZM23.0661 22.7285C23.6732 22.6889 23.5816 22.1043 23.7845 21.7546C23.8775 21.5947 24.0535 21.3441 23.7591 21.2167C23.5126 21.1092 23.221 21.146 23.0802 21.4149C22.9295 21.7037 22.852 22.0292 22.7224 22.3307C22.5604 22.703 22.7914 22.7172 23.0661 22.7285ZM29.9049 21.2649C29.8965 21.1332 29.681 21.1913 29.5133 21.2182C28.8823 21.3215 28.9133 21.9075 28.733 22.3321C28.5893 22.6676 28.7978 22.7285 29.0738 22.7172C29.3556 22.7044 29.9134 21.848 29.9049 21.2649ZM4.21316 20.1551C4.77379 20.1551 5.26258 20.165 5.74855 20.1509C5.98097 20.1438 6.1317 19.9824 6.20494 19.7729C6.2303 19.7007 6.20354 19.5436 6.15987 19.5252C5.6908 19.3341 5.19496 19.4346 4.71181 19.4389C4.33571 19.4417 4.35543 19.8012 4.21316 20.1551Z"
              fill="white"/>
        <path d="M105.835 9.45405C106.61 9.04922 107.444 9.21908 108.226 9.32666C108.566 9.37337 108.68 9.96787 108.875 10.3954C107.694 10.3954 106.583 10.3954 105.472 10.3954C105.396 10.1151 105.67 9.96787 105.682 9.73432C105.796 9.67487 105.822 9.56729 105.835 9.45405Z"
              fill="white"/>
        <path d="M57.9815 21.8439C57.9675 21.9231 57.9534 22.0024 57.9393 22.0817C56.7997 22.1001 55.6615 22.1213 54.522 22.1341C54.3473 22.1355 54.1149 22.1723 54.167 21.8637C54.205 21.6457 54.1571 21.3414 54.4924 21.3371C55.5869 21.3258 56.6814 21.3258 57.7745 21.347C58.1224 21.3541 57.8956 21.6825 57.9815 21.8439Z"
              fill="white"/>
    </g>
    <defs>
        <clipPath id="clip0">
            <rect width="131" height="32" fill="white"/>
        </clipPath>
    </defs>
</svg>
