<svg width="343" height="102" viewBox="0 0 343 102" fill="none" xmlns="http://www.w3.org/2000/svg">
    <g filter="url(#filter0_d)">
        <path d="M280.701 44.0618C280.64 44.2789 280.578 44.4926 280.516 44.7097C279.367 47.8496 278.242 50.9999 277.059 54.126C276.73 54.9946 277.124 55.0463 277.813 55.1049C281.847 55.4289 281.85 55.4426 283.126 51.572C283.195 51.3618 283.212 51.1309 283.257 50.9103C283.308 50.6931 283.36 50.4726 283.411 50.2554C283.871 49.6488 284.052 48.9491 284.104 48.2046C284.354 48.022 284.389 47.7635 284.361 47.4843C285.095 45.9436 285.623 44.334 286.018 42.6796C286.086 42.4659 286.158 42.2557 286.227 42.042C286.604 41.0632 287.06 40.105 287.331 39.0985C287.558 38.2576 288.011 37.8991 288.823 37.8784C289.166 37.875 289.509 37.875 289.852 37.8715C290.195 37.8715 290.538 37.875 290.878 37.875C294.119 37.9026 297.361 37.9301 300.605 37.9577C300.787 38.0163 300.965 38.0749 301.147 38.1335C301.473 38.23 301.799 38.3265 302.125 38.423C302.327 38.5195 302.529 38.6195 302.732 38.716C302.732 38.716 302.742 38.7091 302.742 38.7056C303.006 38.9572 303.274 39.2088 303.538 39.4639C303.572 39.519 303.613 39.5673 303.654 39.6155C304.207 40.8081 304.272 42.0834 304.268 43.369C304.22 43.5861 304.172 43.7998 304.124 44.0169C303.37 46.1677 302.68 48.3391 302.207 50.576C301.936 50.993 301.809 51.448 301.83 51.9477C300.423 55.1152 300.513 55.2738 303.552 55.0049C303.891 55.0049 304.234 55.0049 304.574 55.0049C305.339 55.16 306.049 55.2565 306.278 54.1984C306.615 52.644 307.012 51.1033 307.383 49.5557C307.846 48.5941 308.038 47.5567 308.213 46.5158C308.391 46.2986 308.474 46.0574 308.388 45.7782C308.552 45.2233 308.717 44.6718 308.882 44.1169C309.664 42.0213 310.953 40.329 312.843 39.1123C313.173 38.9366 313.502 38.7642 313.828 38.5884C314.623 38.3782 315.423 38.1714 316.218 37.9611C320.787 37.9474 325.359 37.9336 329.928 37.9198C330.624 38.0266 331.303 38.1197 330.857 39.1399C330.706 39.488 330.71 39.9016 330.641 40.2876C330.569 40.4979 330.501 40.7081 330.428 40.9184C330.137 41.4733 329.938 42.0523 329.945 42.69C329.883 42.9002 329.825 43.1139 329.763 43.3242C329.276 44.4202 328.954 45.5679 328.734 46.7467C328.508 47.5498 328.278 48.3563 328.052 49.1594C327.997 49.4041 327.942 49.6488 327.887 49.8935C327.815 50.1038 327.743 50.3174 327.671 50.5277C326.343 54.6223 325.143 58.748 324.121 62.9288C324.021 62.9943 324.001 63.077 324.059 63.1804C324.004 63.3217 323.949 63.4596 323.891 63.5975C323.843 63.8318 323.798 64.0628 323.75 64.2971C322.728 66.341 322.622 68.6847 321.668 70.7493C307.112 70.7286 292.552 70.7045 277.995 70.6941C261.096 70.6804 244.197 70.6735 227.297 70.6666C226.786 70.6666 226.279 70.7355 225.768 70.77C224.636 70.7252 224.18 70.3426 224.66 69.1087C225.171 67.7921 225.469 66.3927 225.86 65.0313C226.172 65.0106 226.484 64.9899 226.793 64.9692C233.646 65.1381 240.499 65.1347 247.352 64.9692C251.218 64.9968 255.08 65.0554 258.945 65.0485C267.87 65.0382 276.795 64.9968 285.719 64.9692C287.661 65.1312 289.605 65.1347 291.547 64.9692C293.029 65.1105 294.514 65.1105 295.995 64.9692C296.455 65.114 296.911 65.114 297.371 64.9692C302.622 65.1105 307.873 65.1105 313.124 64.9692C314.037 64.8624 315.333 65.7344 315.601 63.9938C315.704 63.7836 315.803 63.5768 315.906 63.3665C315.975 63.2218 316.047 63.0805 316.115 62.9357C316.201 62.7151 316.29 62.498 316.376 62.2774C316.568 61.688 317.841 60.7436 316.023 60.7402C309.804 60.7229 303.586 60.5506 297.371 60.8263C297.024 60.6919 296.681 60.6919 296.338 60.8332C295.656 60.6678 294.973 60.6437 294.287 60.8229L294.181 60.7574L294.071 60.816C294.027 60.2611 293.982 59.7096 293.937 59.1547L293.941 59.1478C294.102 59.0961 294.263 59.0444 294.174 58.8169C294.243 58.4826 294.315 58.1483 294.383 57.8139C294.702 57.4176 294.771 56.9488 294.761 56.4594C294.881 55.9941 294.997 55.5288 295.117 55.067C295.241 54.6189 295.361 54.1743 295.484 53.7262C295.56 53.3678 295.639 53.0093 295.714 52.6508C296.098 52.0098 296.242 51.3032 296.277 50.5691C296.325 50.3519 296.369 50.1313 296.417 49.9142C296.798 49.2697 296.925 48.5597 296.973 47.8255C297.018 47.6084 297.059 47.3878 297.103 47.1706C298.043 44.82 297.834 44.241 295.995 44.0928C295.656 44.0928 295.313 44.0893 294.973 44.0893C292.109 43.8239 292.102 43.8239 291.379 46.5227C291.266 46.9501 291.207 47.3912 291.125 47.8255C290.799 48.2115 290.775 48.6906 290.72 49.1594C289.732 52.4957 288.697 55.8149 287.784 59.1719C287.465 60.3438 286.985 60.7746 285.702 60.7712C272 60.7264 258.3 60.7574 244.598 60.7643C232.38 60.7712 220.163 60.7643 207.946 60.7781C207.267 60.7781 206.409 60.461 206.128 61.5432C205.387 64.4109 204.622 67.2751 203.867 70.1392C203.789 70.2116 203.768 70.2943 203.809 70.3943C203.278 70.6873 202.698 70.5873 202.132 70.5873C173.725 70.5804 145.319 70.5735 116.912 70.5597C111.208 70.5563 105.504 70.5494 99.8 70.508C99.2203 70.5046 98.332 70.9216 98.2325 69.7808C98.2771 69.5602 98.3217 69.3362 98.3628 69.1156C98.6063 68.9363 98.6406 68.6882 98.5858 68.409C98.7161 67.6094 98.8464 66.8098 98.9768 66.0136C99.5839 65.1657 100.455 65.1519 101.395 65.1519C121.23 65.1795 141.069 65.1864 160.904 65.1967C172.816 65.2036 184.732 65.2208 196.644 65.1898C197.186 65.1898 198.067 65.7309 198.308 64.6384C198.699 63.9869 198.27 63.2493 198.681 62.5083C199.46 61.109 199.172 60.7781 197.532 60.7746C190.799 60.7677 184.067 60.7402 177.334 60.7988C175.907 60.8126 175.454 60.6506 175.934 59.0375C177.296 54.4431 178.428 49.7832 179.697 45.1578C180.067 43.8067 179.58 43.1828 178.266 43.1036C177.412 43.0519 176.541 43.176 175.704 43.0415C174.157 42.7899 173.664 43.5723 173.324 44.9165C172.12 49.6764 170.779 54.4018 169.568 59.1616C169.266 60.3404 168.803 60.8057 167.503 60.785C163.171 60.716 158.836 60.8057 154.504 60.8332C153.883 60.7953 153.259 60.7264 152.638 60.7264C144.883 60.7195 137.128 60.6954 129.373 60.7505C128.227 60.7574 127.672 60.3852 127.167 59.3718C125.058 55.1428 122.846 50.9654 120.668 46.7674C120.534 46.2607 120.352 45.7782 119.965 45.4025C119.961 45.1026 119.872 44.851 119.591 44.6994L119.601 44.7132C119.553 44.1651 119.327 43.7102 118.908 43.3552C118.901 43.076 118.867 42.8106 118.586 42.6555C118.486 41.9937 118.085 41.8524 117.505 42.042C117.166 42.0489 116.826 42.0523 116.487 42.0592C115.797 41.8145 115.406 42.1109 115.214 42.7658C114.418 45.4852 113.623 48.2046 112.827 50.9241C112.779 51.1481 112.731 51.3687 112.679 51.5927C111.239 54.774 111.263 54.8671 113.729 55.2427C113.256 56.7731 112.755 58.2758 112.329 59.7992C112.11 60.5816 111.602 60.6885 110.916 60.6816C109.04 60.6575 107.164 60.6747 105.288 60.6747C100.609 60.6678 100.637 60.6781 102.067 56.1561C102.314 55.3703 102.691 55.0118 103.467 55.0084C103.806 55.0049 104.149 55.0015 104.489 54.9946C105.089 55.1083 105.089 54.643 105.199 54.2708C107.377 47.0224 109.541 39.7706 111.75 32.5326C112.168 31.1643 111.568 31.2022 110.608 31.5159C110.203 31.3539 109.548 31.864 109.387 31.054C110.018 29.734 110.381 28.3346 110.639 26.9008C110.704 26.6905 110.769 26.4803 110.834 26.2701C110.982 25.8392 111.129 25.4049 111.273 24.9741C111.407 24.919 111.541 24.8638 111.678 24.8087C112.251 24.8052 112.823 24.8018 113.396 24.7983C114.079 24.7983 114.761 24.7983 115.444 24.7983C116.144 24.9293 116.843 24.9534 117.54 24.7983C117.697 24.7708 117.852 24.7397 118.009 24.7122H118.023C118.702 24.7122 119.385 24.7122 120.064 24.7122H120.078C120.301 24.7122 120.524 24.7122 120.747 24.7122H120.76C120.983 24.7122 121.206 24.7122 121.429 24.7122H121.443C121.666 24.7122 121.889 24.7122 122.112 24.7122H122.125C122.348 24.7122 122.571 24.7122 122.794 24.7122H122.808C123.031 24.7122 123.254 24.7122 123.477 24.7122H123.49C123.713 24.7122 123.936 24.7122 124.159 24.7122H124.173C124.626 24.8535 125.075 24.8535 125.528 24.7122H125.542C125.765 24.7122 125.987 24.7122 126.21 24.7122H126.224C126.447 24.7122 126.67 24.7122 126.893 24.7122H126.907C127.13 24.7122 127.353 24.7122 127.576 24.7122H127.589C128.498 24.7122 129.407 24.7122 130.316 24.7122H130.33C133.005 25.0637 135.691 24.8087 138.373 24.8569C139.141 25.2705 139.913 25.6807 140.681 26.0943C140.716 26.2115 140.791 26.2769 140.911 26.2942C142.04 27.8865 141.841 29.6133 141.419 31.3608C141.086 31.7399 141.028 32.219 140.945 32.6912C140.664 33.2461 140.414 33.8114 140.41 34.4524C140.071 34.835 140.026 35.3141 139.985 35.7932C139.402 37.2718 138.726 38.6953 137.584 39.843L137.687 39.8913L137.591 39.8327C136.095 40.715 134.514 41.3871 132.837 41.8318C130.913 41.8904 128.989 41.9455 127.068 42.0041C126.632 41.8731 126.06 41.7353 125.819 42.0937C125.518 42.5452 125.974 43.0071 126.231 43.4241C126.581 44.2237 126.931 45.0268 127.281 45.8264C127.51 46.6778 127.812 47.4981 128.351 48.2081C128.436 48.4459 128.522 48.6872 128.608 48.925C128.714 49.1525 128.824 49.38 128.93 49.6074C129.181 50.1761 129.428 50.7448 129.678 51.3135C129.736 51.834 129.918 52.3062 130.275 52.6991C130.416 53.0403 130.556 53.3815 130.693 53.7228C130.824 54.6637 131.318 55.0739 132.309 55.0428C134.182 54.9842 136.061 54.9842 137.934 55.0463C138.97 55.0807 139.399 54.643 139.409 53.6676C139.92 52.1993 140.434 50.7276 140.945 49.2593C141.014 49.0146 141.079 48.7699 141.148 48.5217C141.782 47.2051 142.218 45.8161 142.564 44.3995C142.904 44.0342 142.962 43.5689 143.024 43.1036C143.202 42.7796 143.384 42.4522 143.562 42.1282C144.591 40.9908 145.665 39.9085 146.989 39.1089C147.226 38.9951 147.462 38.8849 147.696 38.7711C148.488 38.5299 149.277 38.2886 150.069 38.0439C153.362 37.9922 156.658 37.937 159.951 37.8853C160.177 37.8888 160.407 37.8922 160.633 37.8922C161.089 38.037 161.549 38.0439 162.005 37.8922C164.279 38.0956 164.272 38.0921 163.528 40.3635C162.979 42.0351 162.448 43.7136 161.909 45.3887C161.611 45.6713 161.597 46.0505 161.559 46.4193C160.877 47.7083 160.517 49.1146 160.108 50.5036C159.741 51.4066 159.33 52.2958 159.234 53.285C158.376 55.1118 158.404 55.1462 160.637 54.9704C161.319 54.9704 162.002 54.967 162.681 54.967C163.226 55.1187 163.71 55.129 163.892 54.4431C164.382 52.5716 165.24 50.8069 165.497 48.8664L165.514 48.7423C165.589 48.5528 165.668 48.3632 165.744 48.1736C165.795 48.0185 165.843 47.8669 165.895 47.7118C166.581 46.0849 167.147 44.4202 167.459 42.6796C167.524 42.4694 167.593 42.2591 167.658 42.0489C167.963 41.2148 168.368 40.4048 168.543 39.5432C168.779 38.3713 169.383 37.8198 170.563 37.8853C174.559 38.037 178.558 38.0439 182.554 37.8819C182.78 37.8888 183.01 37.8922 183.236 37.8991C183.446 37.9577 183.655 38.0163 183.868 38.0749C184.986 38.5367 185.895 39.2468 186.471 40.3359C186.56 40.8874 186.649 41.4388 186.738 41.9903C186.732 42.2212 186.721 42.4522 186.714 42.6865C186.663 43.0174 186.615 43.3483 186.563 43.6757C185.95 45.1061 185.493 46.5882 185.161 48.1116C185.044 48.4597 184.927 48.8113 184.811 49.1594C184.509 49.7074 184.269 50.2761 184.255 50.9172L184.169 50.9861L184.2 51.0895C184.142 51.2549 184.084 51.4238 184.022 51.5893C183.916 51.9167 183.806 52.2476 183.7 52.575C183.49 53.1506 183.25 53.7193 183.075 54.3052C182.818 55.16 183.391 55.067 183.919 54.9946C184.262 54.9911 184.605 54.9877 184.945 54.9842C185.058 54.9842 185.168 54.9808 185.281 54.9808C185.51 54.9808 185.737 54.9808 185.967 54.9808C186.539 55.0325 187.26 55.4013 187.308 54.3432C187.462 53.8951 187.616 53.4505 187.771 53.0024C188.104 52.4682 188.357 51.9029 188.361 51.2549C188.673 50.8586 188.745 50.3864 188.786 49.9073C189.211 49.4179 189.249 48.7768 189.458 48.2012C190.669 44.8924 191.273 41.2562 194.418 38.9917C194.593 38.9021 194.764 38.8159 194.939 38.7263C195.615 38.5057 196.291 38.2817 196.966 38.0611C201.127 38.0232 205.287 37.9922 209.448 37.9508C210.072 37.9439 210.696 37.8991 211.321 37.8715C211.664 38.0128 212.007 38.0163 212.35 37.8681C212.418 37.9508 212.504 37.9646 212.597 37.9163C212.809 39.1261 211.921 40.1257 211.948 41.301C211.523 42.0489 211.338 42.8589 211.293 43.7102C210.278 46.2711 209.595 48.9319 208.961 51.6031C208.58 52.2166 208.494 52.9162 208.378 53.6056C207.874 54.5775 207.589 55.4151 209.263 55.0394C214.744 55.2083 220.225 55.1359 225.706 55.0187C225.936 55.0187 226.162 55.0187 226.392 55.0222C226.735 55.0256 227.078 55.029 227.417 55.0325C228.666 55.3392 228.518 54.3466 228.697 53.6538C228.758 53.4401 228.824 53.223 228.885 53.0093C229.76 50.3726 230.642 47.7359 231.499 45.0958C231.681 44.5374 231.88 43.886 230.84 44.0997C230.271 44.0962 229.702 44.0962 229.132 44.0928C228.807 44.0652 228.477 44.0376 228.151 44.0135L228.145 44.01C228.354 42.3005 229.17 40.7633 229.537 39.1054C229.77 38.0404 230.381 37.682 231.358 37.8853C233.077 38.2438 233.866 37.4373 234.113 35.8311C234.181 35.3865 234.336 34.9557 234.449 34.5179C234.565 34.1629 234.682 33.8114 234.802 33.4564C234.991 32.9221 235.176 32.3913 235.368 31.8571C235.591 31.2401 235.299 31.0816 234.73 31.0092C233.921 30.9058 232.703 31.4676 232.405 30.7059C232.144 30.0304 232.789 29.0067 233.018 28.1313C233.149 27.6384 233.241 27.1386 233.355 26.6423L233.334 26.6526C233.396 26.5079 233.454 26.3631 233.516 26.2149C233.595 26.0012 233.677 25.791 233.756 25.5773C233.838 25.3498 233.921 25.1258 234.003 24.8983L233.986 24.9155C235.107 24.8742 236.232 24.8328 237.354 24.7914C243.291 24.7914 249.225 24.7914 255.162 24.7914C255.505 24.8018 255.848 24.8156 256.195 24.8259C256.414 24.8569 256.634 24.8879 256.85 24.919C260.9 26.4631 261.816 28.407 260.485 32.6223C260.4 32.8945 260.3 33.1634 260.214 33.4357C258.743 38.1162 257.275 42.7968 255.807 47.4774C255.495 47.8634 255.371 48.3149 255.334 48.7975C254.905 50.0348 254.459 51.2653 254.054 52.5095C253.152 55.2841 253.162 55.2875 256.195 55.029C256.538 55.029 256.88 55.029 257.223 55.029C257.923 55.2393 258.407 55.1152 258.623 54.3018C258.925 53.1609 259.305 52.0442 259.652 50.9137C259.978 50.5311 260.043 50.059 260.115 49.5868C260.406 49.1559 260.609 48.6941 260.599 48.1633C260.667 47.9496 260.736 47.7393 260.808 47.5257C260.931 47.1913 261.051 46.8535 261.175 46.5192C261.281 46.1711 261.387 45.823 261.494 45.4749C261.72 45.2888 261.768 45.0441 261.727 44.7683C261.727 44.7683 261.717 44.7856 261.713 44.7856C261.775 44.658 261.833 44.5339 261.895 44.4064C262.094 43.8446 262.296 43.2862 262.495 42.7244C263.445 40.8943 264.636 39.2778 266.491 38.261C266.711 38.199 266.93 38.1369 267.15 38.0749C267.417 38.1576 267.654 38.1128 267.856 37.9094C270.936 37.8922 274.013 37.875 277.093 37.8577C280.616 38.5471 281.47 39.8534 280.705 43.3896C280.739 43.6102 280.729 43.8377 280.701 44.0618ZM240.739 55.0911C240.739 55.0945 240.739 55.0945 240.739 55.098C241.995 55.098 243.253 55.1393 244.505 55.0876C246.502 55.0084 247.513 54.2122 248.09 52.2855C248.841 49.7694 249.558 47.2396 250.285 44.7166C251.266 41.3148 252.291 37.9232 253.214 34.5076C253.831 32.2087 252.964 31.1057 250.628 31.0196C249.829 30.9885 249.029 30.9816 248.23 31.0127C246.474 31.085 244.375 30.344 243.054 31.3056C241.727 32.2707 241.895 34.5352 241.213 36.162C241.192 36.2137 241.185 36.2757 241.165 36.3274C240.811 37.1236 240.863 37.6682 241.933 37.6027C242.818 37.5475 242.811 38.0025 242.612 38.6781C242.207 40.0464 241.809 41.4182 241.511 42.8141C241.309 43.7619 240.9 44.21 239.889 44.0721C239.275 43.9859 238.657 43.9377 238.424 44.82C237.597 47.9117 236.726 50.9861 235.848 54.064C235.632 54.8257 235.852 55.1152 236.634 55.1014C237.999 55.0739 239.367 55.0911 240.739 55.0911ZM197.577 55.1187C198.146 55.1187 198.726 55.0428 199.282 55.1324C200.801 55.3841 201.504 54.7843 201.851 53.2644C202.382 50.9378 203.188 48.6768 203.826 46.3745C204.718 43.1518 204.698 43.1449 201.268 43.2414C198.098 43.3311 196.819 44.3134 195.924 47.4223C195.529 48.7871 195.203 50.1761 194.843 51.5514C193.91 55.1049 193.91 55.1049 197.577 55.1187ZM123.892 36.4136C123.892 36.4101 123.892 36.4067 123.892 36.4067C125.603 36.4067 127.322 36.3412 129.03 36.4239C130.652 36.5032 131.767 35.738 132.614 34.5007C133.122 33.7597 133.76 32.8773 133.245 31.9812C132.803 31.2057 131.825 31.0954 130.954 31.085C128.385 31.0609 125.816 31.0609 123.247 31.0609C118.915 31.0575 118.949 31.0713 117.629 35.1762C117.282 36.255 117.598 36.455 118.582 36.4274C120.352 36.3791 122.122 36.4136 123.892 36.4136ZM149.458 55.0084C149.856 55.0084 150.265 54.9498 150.652 55.0187C152.158 55.2806 152.878 54.6982 153.228 53.1678C153.773 50.7828 154.579 48.4563 155.255 46.1022C156.078 43.2277 156.071 43.2242 152.988 43.238C150.189 43.2518 149.253 43.9756 148.515 46.6985C148.039 48.4597 147.548 50.2141 147.082 51.9787C146.286 54.998 146.293 54.998 149.458 55.0084ZM264.416 55.098C266.23 55.098 267.819 55.0463 269.4 55.1152C270.394 55.16 270.929 54.8774 271.242 53.8503C271.838 51.8926 272.607 49.9866 273.303 48.0564C274.709 44.1583 274.579 44.0204 270.391 43.9583C268.83 43.9342 267.644 44.4133 267.16 45.9023C266.2 48.8733 265.366 51.8822 264.416 55.098ZM315.22 55.0842C315.961 55.0842 316.705 55.067 317.446 55.0911C318.04 55.1118 318.396 54.8912 318.585 54.3052C319.59 51.2101 320.626 48.1254 321.631 45.0303C321.74 44.6959 321.957 44.2961 321.353 44.0583C318.691 43.0071 315.056 44.6029 314.136 47.343C313.629 48.8561 313.299 50.4277 312.888 51.9718C312.054 55.0911 312.054 55.0911 315.22 55.0842Z"
              fill="#E21E00"/>
        <path d="M68.6899 18.3324C68.6419 18.4496 68.5938 18.5702 68.5458 18.6874C67.829 19.7525 67.2836 20.9002 66.8652 22.1134L66.8514 22.1479C65.2154 25.405 63.593 28.669 61.9261 31.9089C61.7477 32.257 61.8197 32.4224 62.0427 32.6051C62.3034 32.8188 62.5846 32.7774 62.7767 32.4982C63.1746 31.9192 63.6033 31.2126 64.0492 30.8404C67.534 27.9417 70.1442 24.2504 73.2105 20.9829C75.5429 18.5013 75.488 18.4496 78.009 20.5004C78.6264 21.1242 79.2438 21.7515 79.8612 22.3788C80.1939 22.7442 80.5231 23.113 80.8559 23.4783C81.9843 24.5399 81.4664 25.3981 80.5197 26.2046C80.3997 26.308 80.2831 26.408 80.163 26.5114C78.9351 27.3041 77.9335 28.3484 76.9286 29.3928L76.8463 29.4548C73.2586 32.612 69.6743 35.7657 66.0866 38.9228C66.1963 39.0986 66.3061 39.2744 66.4158 39.4502C71.5607 36.8617 76.7056 34.2698 81.8471 31.6814L81.8814 31.6676C83.1127 31.478 84.2378 29.9167 85.229 30.5026C86.1208 31.03 86.3849 32.6258 86.9337 33.7459C87.0572 33.9975 87.2184 34.2285 87.359 34.4697L87.3556 34.4594C87.3933 35.1108 87.6574 35.6657 88.069 36.162C88.1444 36.4068 88.2165 36.648 88.2919 36.8927C88.2714 36.9306 88.2233 36.9892 88.2336 37.003C88.2851 37.0651 88.3503 37.1133 88.4086 37.1685L88.4154 37.1891C88.3777 37.4787 88.4737 37.7165 88.7104 37.8923C88.707 38.0887 88.7035 38.2817 88.7001 38.4782C85.9939 39.4329 83.2877 40.3877 80.578 41.3424L80.5334 41.3527C79.8886 41.3837 79.3055 41.5733 78.8013 41.9869C78.5681 42.0455 78.3349 42.1007 78.1016 42.1592C77.9884 42.2178 77.8787 42.2764 77.7655 42.335H77.7689C74.4179 43.1795 71.228 44.503 67.877 45.5921C68.6179 45.9816 71.0565 45.8885 73.6633 45.4301C74.2327 45.4095 74.802 45.3853 75.3714 45.3646C78.4755 45.4336 81.5693 45.3474 84.6322 44.7649C85.6543 44.7236 86.6799 44.6822 87.702 44.6408C88.5115 44.6581 89.3175 44.6719 90.127 44.6891L90.1544 44.7408C90.1955 46.2332 90.2367 47.7256 90.2744 49.218C90.271 49.6695 90.2676 50.121 90.2642 50.5726C90.2367 51.2653 90.2127 51.9547 90.1853 52.6475C90.0755 53.0473 89.8251 53.2954 89.4135 53.3678C89.1871 53.3609 88.9608 53.354 88.731 53.3471C80.9656 53.1886 73.2002 53.1989 65.4349 53.3402C65.2051 53.3402 64.9753 53.3402 64.7455 53.3402C63.0339 53.1955 61.3224 53.192 59.6109 53.3437C59.3811 53.3437 59.1513 53.3437 58.9214 53.3437C49.9007 53.192 40.88 53.1955 31.8593 53.3437C31.1733 53.1817 30.4873 53.1817 29.8013 53.3437C27.1774 53.1955 24.5501 53.1955 21.9228 53.3437C21.35 53.1886 20.7772 53.1886 20.2078 53.3437C19.9814 53.3437 19.7516 53.3437 19.5253 53.3437C18.8393 53.1817 18.1533 53.1817 17.4673 53.3437C16.5549 53.2024 15.6426 53.2024 14.7302 53.3471C14.5004 53.3506 14.2706 53.354 14.0408 53.3575C13.444 53.1403 12.7546 53.4023 12.1921 52.9956C12.2332 52.2959 12.2504 51.5962 12 50.9241C12.0034 49.4421 12.0069 47.96 12.0103 46.4745C12.096 45.8954 12.1818 45.3164 12.2675 44.7339C12.4013 44.6822 12.5316 44.6339 12.6654 44.5823C13.1216 44.7408 13.5846 44.7546 14.0511 44.6374C15.0732 44.6788 16.0988 44.7236 17.1209 44.7649C18.2493 45.0889 19.4018 45.082 20.5577 45.0234C21.0036 45.0751 21.4495 45.1234 21.8919 45.1751C23.5006 45.2406 25.1126 45.3095 26.7213 45.375C27.2906 45.3957 27.86 45.4163 28.4294 45.437C30.333 45.6542 32.2229 46.0816 34.1436 46.054C34.1917 45.8644 34.2397 45.6748 34.2877 45.4853C31.5335 44.5823 28.7826 43.6758 26.0284 42.7728C25.9152 42.7452 25.802 42.7176 25.6889 42.6866C25.5894 42.6521 25.4933 42.6142 25.3939 42.5797C25.1504 42.497 24.9068 42.4177 24.6667 42.335C23.1198 41.6319 21.5283 41.0529 19.8648 40.6944C19.7585 40.6703 19.6487 40.6427 19.5424 40.6186C19.4327 40.5669 19.3195 40.5117 19.2097 40.46C18.9971 40.3911 18.7844 40.3222 18.5683 40.2532C18.438 40.1946 18.3042 40.1361 18.1739 40.074C17.9441 40.0223 17.7143 39.9672 17.481 39.9155C16.4177 38.9918 14.2123 39.4984 13.9585 38.0853C13.739 36.8721 14.7885 35.4313 15.2687 34.0906C15.3065 33.9872 15.2962 33.8666 15.3099 33.7528C15.6872 33.1152 16.0473 32.4707 16.1674 31.7262C16.7813 30.2372 17.7074 30.1062 18.9319 31.0472C19.1788 31.2368 19.5527 31.2712 19.8648 31.3746C20.0226 31.6331 20.2696 31.7089 20.5542 31.7089C21.1579 32.2156 21.8405 32.5637 22.6156 32.7223L22.6225 32.7257C26.6115 34.742 30.5971 36.7618 34.5861 38.7781C34.8399 38.9056 35.1417 39.0572 35.2995 38.7126C35.3647 38.5713 35.2446 38.2645 35.1143 38.1232C33.1935 36.0931 31.3379 33.9837 28.8135 32.6464C28.8341 32.543 28.8067 32.4569 28.7312 32.381C28.7861 32.1432 28.6386 32.064 28.4465 32.0157C28.323 31.9089 28.203 31.8055 28.0795 31.6986C27.3764 30.899 26.6458 30.1304 25.7094 29.5961C25.5962 29.4927 25.4865 29.3893 25.3733 29.2859C24.0493 28.0555 22.7631 26.7768 21.3877 25.6083C20.6846 25.0121 20.6812 24.5812 21.2814 23.9608C22.3447 22.8579 23.3325 21.6826 24.4198 20.6072C26.7281 18.329 26.7453 18.3497 28.8821 20.6762C29.1462 20.9622 29.4583 21.2069 29.7465 21.4723L29.7327 21.4586C30.014 22.0721 30.4873 22.5167 31.0087 22.9234L31.1081 22.8545L31.019 22.9372C32.8711 25.2878 34.9051 27.473 37.0076 29.5927C37.1242 29.7202 37.2409 29.8477 37.3575 29.9753C38.4928 31.2816 39.6315 32.5913 40.7668 33.8976C40.9143 33.7804 41.0618 33.6632 41.2127 33.546C40.4547 31.8675 39.755 30.1579 38.7226 28.6035C38.7157 28.1968 38.5408 27.8694 38.2595 27.5867C38.0846 26.9353 37.8274 26.3253 37.3472 25.8324C37.354 25.4257 37.1723 25.1051 36.891 24.826C36.819 24.695 36.7435 24.564 36.6715 24.433C36.7024 24.3124 36.6681 24.2193 36.5617 24.1539C35.4642 21.8411 34.3837 19.5181 33.2587 17.2192C32.1783 15.0167 32.1577 15.0271 34.075 13.8207C34.1436 13.8242 34.2054 13.807 34.2568 13.769C35.2069 13.4106 36.1604 13.0659 37.1071 12.6971C40.2969 11.4598 40.2935 11.4598 41.4871 14.5514C41.5454 14.7065 41.6586 14.8375 41.7444 14.9823C41.6998 15.0926 41.7306 15.1718 41.837 15.227C42.005 16.2024 42.3103 17.1261 42.8076 17.9843C42.8351 18.0946 42.8625 18.2015 42.8934 18.3117C44.4986 23.0613 46.1038 27.8142 47.7056 32.5637C47.8359 32.5327 47.9662 32.4982 48.1 32.4672C47.9148 30.1545 47.7262 27.8418 47.5409 25.5291C47.5066 24.9604 47.4689 24.3882 47.4346 23.8195C47.4037 21.5206 47.2974 19.2251 46.9167 16.9503C46.8927 16.3782 46.8721 15.806 46.8481 15.2373C46.7658 13.6415 46.6835 12.0423 46.5977 10.4465V10.443C49.2525 9.91911 51.9244 10.0742 54.5997 10.2328C55.4675 10.2845 55.7453 10.6016 55.6767 11.5011C55.4881 14 55.4058 16.5091 55.2823 19.0149C55.2446 19.7008 55.2068 20.3866 55.1725 21.0725C54.6683 24.664 54.8707 28.3071 54.2053 31.8847C54.3974 31.9364 54.5929 31.9847 54.785 32.0364C56.0197 28.376 57.2511 24.7191 58.4858 21.0587C58.5133 20.945 58.5442 20.8313 58.5716 20.7175C58.6093 20.6176 58.6505 20.5176 58.6882 20.4177C58.7602 20.1764 58.8357 19.9317 58.9077 19.6904C60.0465 17.1399 60.8902 14.4894 61.6585 11.8079L61.662 11.801C63.545 11.7217 65.1262 12.6971 66.7794 13.3485C70.1956 14.6927 70.1785 14.7376 68.7173 18.005C68.7105 18.1049 68.7105 18.2256 68.6899 18.3324Z"
              fill="#E21E00"/>
        <path d="M23.3019 72.7104C31.2971 72.7104 39.2957 72.7104 47.2908 72.7104C48.896 72.8621 50.5012 72.8483 52.1065 72.7208C60.7808 72.7173 69.4516 72.7139 78.1259 72.7104C79.3744 72.7863 80.6195 72.8587 81.868 72.9345C81.7582 73.1309 81.6519 73.3274 81.5421 73.5239C81.0276 73.8616 80.6675 74.3269 80.424 74.8887C80.105 75.2162 79.786 75.5471 79.467 75.8745C79.004 76.1227 78.6473 76.4742 78.4483 76.9671L78.4552 76.9602C77.9647 77.167 77.632 77.5358 77.3748 77.9873C77.2719 78.0769 77.169 78.1665 77.0661 78.2561C74.7989 79.9036 72.5351 81.5512 70.2679 83.1987C70.0416 83.3262 69.8152 83.4537 69.5922 83.5812C69.1429 83.6329 68.745 83.7846 68.4569 84.1568C68.2306 84.2706 68.0076 84.3843 67.7812 84.4946L67.6783 84.4429L67.6269 84.5601C67.4657 84.6221 67.3045 84.6842 67.1433 84.7428C66.9752 84.6463 66.9066 84.7393 66.8689 84.8875C66.7454 84.9289 66.6219 84.9703 66.4984 85.0151C64.1009 85.7768 61.7 86.5419 59.3024 87.3036C59.0761 87.3416 58.8463 87.376 58.6199 87.4139C57.2479 87.607 55.8794 87.8 54.5074 87.993C52.446 87.9964 50.3846 87.9964 48.3232 87.9999C46.8484 87.8069 45.3735 87.6138 43.8986 87.4174C43.6585 87.3829 43.4219 87.3485 43.1818 87.3174C42.4375 86.928 41.6314 86.7935 40.8083 86.7315C40.575 86.6901 40.3384 86.6522 40.1051 86.6109C39.5803 86.2765 39.0178 86.0594 38.3867 86.0456C38.2358 86.0111 38.0849 85.9767 37.934 85.9422L37.8791 85.8457L37.8482 85.9181C37.5498 85.8078 37.2514 85.701 36.953 85.5907L36.881 85.4873L36.7712 85.5355C36.5106 85.4356 36.2533 85.3356 35.9926 85.2356C35.6085 84.8634 35.1352 84.7049 34.6172 84.6394C34.5041 84.6084 34.3943 84.5739 34.2811 84.5429C34.1748 84.4843 34.065 84.4257 33.9587 84.3705C33.8284 84.3188 33.6946 84.2637 33.5643 84.212C33.4682 84.1499 33.3687 84.0879 33.2727 84.0259C33.1355 83.9742 32.9983 83.9259 32.8611 83.8742C32.7719 83.8225 32.6828 83.7708 32.597 83.7191C32.278 83.4468 31.9419 83.209 31.5029 83.1849C31.4068 83.1228 31.3142 83.0574 31.2182 82.9953C31.1016 82.9367 30.9884 82.8781 30.8718 82.823C30.6214 82.4438 30.2475 82.2681 29.8222 82.175C29.6679 81.9268 29.4449 81.7959 29.1499 81.7855C28.8927 81.434 28.5634 81.1824 28.1278 81.0962L28.1347 81.0996C27.7711 80.624 27.3046 80.2931 26.7455 80.0863C26.4437 79.8382 26.1453 79.5934 25.8435 79.3453C25.5657 78.8938 25.2055 78.5422 24.6842 78.3871C24.5641 78.2699 24.4441 78.1493 24.324 78.0321C23.0309 76.3226 21.3983 74.8646 20.4962 72.8621C21.3263 72.8139 22.1597 72.769 22.9898 72.7208L23.1441 72.7759L23.3019 72.7104Z"
              fill="#E21E00"/>
        <path d="M55.1834 67.3749C53.2421 67.2198 51.3007 67.1922 49.3594 67.3852C48.718 67.4645 48.7523 67.9608 48.7214 68.4192C48.6185 68.4813 48.5945 68.5674 48.6425 68.6777C48.5842 68.8156 48.5225 68.95 48.4608 69.0879C48.4093 69.3188 48.3544 69.5497 48.303 69.7772C48.1898 70.0012 48.08 70.2287 47.9668 70.4527L47.9771 70.4459C46.8933 70.4665 45.8094 70.4976 44.7256 70.501C36.1096 70.5286 27.497 70.5527 18.881 70.5768C18.6787 70.4148 18.4729 70.2528 18.2705 70.0943C18.1642 69.6566 17.8795 69.3464 17.5399 69.081C17.5777 68.9948 17.5777 68.9121 17.5399 68.8259C23.3537 68.8052 29.164 68.7777 34.9777 68.7639C38.339 68.7535 41.7038 68.7639 45.0651 68.757C45.7237 68.757 46.612 68.9569 46.6086 67.9298C46.6017 66.7476 45.5899 67.3335 45.0548 67.299C43.58 67.206 42.0914 67.2473 40.6131 67.268C39.8413 67.2784 39.5807 67.0371 39.8722 66.2547C40.2975 65.107 40.6714 63.9385 41.035 62.7701C41.1962 62.2497 41.5254 61.6086 40.6577 61.3846C39.982 61.2088 39.4503 61.3673 39.2171 62.1601C38.8261 63.4732 38.3459 64.7554 37.9514 66.0686C37.7113 66.8682 37.3512 67.2922 36.408 67.2784C32.9335 67.2267 29.4555 67.2439 25.981 67.2887C25.1647 67.299 24.7393 67.0026 24.4684 66.2478C23.9299 64.7451 23.3296 63.263 22.726 61.7878C22.4619 61.1467 21.9062 60.4953 21.4809 61.4811C20.9253 62.7667 19.9992 63.9765 20.3971 65.6102C20.5891 66.396 20.253 67.3335 19.0217 67.2715C18.5175 67.2473 18.0064 67.337 17.4988 67.3749C17.1283 67.2715 16.6722 67.2922 16.6104 66.751C16.8368 66.5546 16.8917 66.303 16.8299 66.0203C17.0529 65.786 17.2758 65.555 17.4953 65.3207C17.7457 65.3793 17.9172 65.2931 18.003 65.0484C18.2019 64.4659 18.4008 63.8834 18.5998 63.3009C19.8071 60.9193 20.572 58.4239 20.5343 55.7217C20.6612 55.5873 20.7881 55.4494 20.915 55.315C21.3746 55.3046 21.8376 55.2909 22.2972 55.2805C23.4394 55.2805 24.5816 55.2805 25.7237 55.284C25.8335 55.2874 25.9398 55.2874 26.0496 55.2909C26.8488 55.4322 27.6514 55.4322 28.4505 55.2805C29.4829 55.4529 30.0352 56.025 29.9769 57.1072C29.922 57.3313 29.8671 57.5553 29.8156 57.7794C29.332 58.3618 29.212 59.1029 28.9547 59.7853C28.845 59.8129 28.7867 59.8818 28.7867 59.999L28.6426 60.0266L28.6186 60.1713C27.9978 60.578 27.3564 61.0399 26.5949 60.9744C24.7119 60.8124 24.6159 61.6569 25.3053 63.0596C25.4802 63.4112 25.6106 63.8041 25.6689 64.1936C25.8129 65.2035 26.4132 65.3758 27.3427 65.4103C29.1537 65.4758 28.9993 63.9248 29.4075 62.9631C30.7554 59.7819 33.2833 58.7375 36.6515 60.1231C36.0787 61.4638 35.4716 62.7908 34.9503 64.1522C34.8165 64.5038 34.1476 65.0863 35.0875 65.3344C35.7151 65.4999 36.1747 65.2724 36.3805 64.5969C36.6961 63.5801 37.0391 62.5702 37.3718 61.5569C37.6427 61.2743 37.7662 60.9331 37.7559 60.5436C37.8588 60.3126 37.9652 60.0817 38.0681 59.8508C39.32 59.8198 40.5719 59.7577 41.8238 59.7681C43.3467 59.7853 43.7309 60.354 43.285 61.8395C43.1546 62.2773 42.8905 62.684 42.8254 63.1251C42.719 63.8731 41.5357 64.8795 42.5476 65.2655C43.7206 65.7101 43.7309 64.1626 44.0259 63.4147C45.439 59.8232 45.5384 59.7164 49.3525 59.7129C49.5823 59.7129 49.8156 59.744 50.0351 59.706C51.6026 59.4475 51.5957 60.1748 51.1087 61.3225C50.6868 62.3186 50.3987 63.3733 49.9974 64.3797C49.6887 65.1552 49.9562 65.4172 50.7211 65.4068C51.9181 65.393 53.1289 65.3103 54.3156 65.4275C55.7768 65.5723 56.4353 64.9484 56.528 63.5594L56.6411 63.4732L56.5965 63.3457C56.7475 62.9942 56.8984 62.6392 57.0493 62.2876C57.1762 61.5983 56.0135 61.3225 56.4902 60.5229C56.7337 60.2196 56.9738 59.9128 57.2174 59.6095C57.9445 59.8301 58.1675 59.4269 58.2086 58.803C58.4864 58.5204 58.6476 58.193 58.5722 57.7828C58.6614 57.4726 58.4899 57.4657 58.2669 57.5174C57.6187 56.1008 58.3287 55.5149 59.6252 55.284C59.9716 55.284 60.318 55.2874 60.6644 55.2874C62.0296 55.4322 63.3981 55.4391 64.7632 55.284C65.5933 55.4287 66.3616 55.6838 66.7903 56.4972C67.1504 57.8104 66.07 58.7099 65.8333 59.8542C65.4389 60.3575 65.2365 60.9365 65.1611 61.5638C65.065 61.6327 65.0376 61.7223 65.0822 61.8326C65.017 61.9671 64.9553 62.1015 64.8901 62.2359C64.7289 62.6771 64.5677 63.1217 64.4031 63.5629C64.3413 63.6904 64.2796 63.8179 64.2144 63.9489C64.1493 64.1764 64.0875 64.4004 64.0223 64.6279C63.5867 65.1931 63.6931 65.4378 64.4271 65.3138C65.7853 65.4689 65.4869 64.3073 65.775 63.6111C66.0083 63.4353 66.1215 63.2044 66.0837 62.908L66.1077 62.8391L66.2209 62.777L66.1626 62.6805C66.269 62.4186 66.3753 62.1566 66.4782 61.8947C66.5365 61.7878 66.5948 61.681 66.6497 61.5776C66.7251 61.388 66.7972 61.195 66.8726 61.0054C67.2225 60.6297 67.5689 60.2506 67.9187 59.8749C69.4245 59.8094 70.9577 59.3062 72.4017 60.1782C72.6589 61.6293 71.7431 62.7598 71.3761 64.0419C71.2595 64.4452 70.5838 64.976 71.3007 65.3172C71.8975 65.6033 72.4908 65.4241 72.755 64.6382C73.2248 63.2527 73.7531 61.8912 74.2573 60.5195C74.3087 60.3506 74.3636 60.1817 74.415 60.0128C75.1388 59.5234 76.0065 59.9266 76.7611 59.6337C77.7215 59.937 78.9768 59.32 79.6388 60.5539C79.5394 61.8774 78.9288 63.0562 78.5824 64.3108C78.4864 64.6555 78.1399 65.1311 78.7093 65.3241C79.1895 65.4861 79.7589 65.5102 80.0024 64.8691C80.2048 64.3384 80.3968 63.7972 80.5409 63.2492C80.9182 61.8361 81.4841 60.5608 82.8252 59.7922L82.8973 59.7784C84.2041 59.7715 85.5109 59.7681 86.8211 59.7612C87.3424 59.7577 87.8912 59.7129 87.8638 60.4919C87.61 60.9331 87.3562 61.3742 87.3802 61.9119C87.3459 61.9291 87.2807 61.9464 87.2807 61.9671C87.2738 62.036 87.291 62.1049 87.3013 62.1739C87.2155 62.4255 87.1298 62.6736 87.0406 62.9252C86.6222 63.4215 86.5124 64.0282 86.4301 64.6451C86.3821 64.8106 86.334 64.976 86.2895 65.1414C85.9396 65.6033 85.7407 66.1203 85.7064 66.6993C85.2365 67.9608 84.7666 69.2257 84.2967 70.4872C74.9089 70.4976 65.5212 70.4734 56.1369 70.5596C54.542 70.5734 54.247 70.1081 54.837 68.7604L54.8404 68.757C63.453 68.7432 72.0655 68.7329 80.6815 68.7191C81.0794 68.7191 81.4807 68.7156 81.8786 68.726C82.5611 68.7466 82.8149 68.2124 82.8458 67.7368C82.8938 66.9682 82.2113 67.2887 81.834 67.2749C80.2939 67.2301 78.7539 67.1991 77.2139 67.2301C76.2878 67.2473 75.9585 66.9957 76.3221 66.0445C76.7062 65.0311 77.0012 63.9868 77.3202 62.9494C77.4677 62.4703 77.7524 61.9085 76.9669 61.7154C76.3632 61.5672 75.8453 61.6534 75.6121 62.3738C75.3137 63.2975 74.8095 64.1798 74.6689 65.1208C74.3876 67.0233 73.3037 67.3266 71.5853 67.3025C66.1249 67.237 60.6507 67.3404 55.1834 67.3749ZM59.9442 65.3724C61.2441 65.6309 61.9678 65.107 62.3417 63.8283C62.8219 62.1876 63.4736 60.5987 64.0223 58.9788C64.1836 58.5066 64.4374 57.8517 63.8783 57.5863C63.0482 57.19 62.0021 57.1141 61.2407 57.5346C60.6404 57.8655 60.1671 58.7444 60.5375 59.5785C60.884 60.3575 60.541 61.1847 60.1259 61.4259C59.193 61.9671 59.0867 62.8528 58.7265 63.649C58.1606 64.9036 58.1949 65.7618 59.9442 65.3724ZM46.6635 65.3758C47.3426 65.6102 47.7336 65.2207 47.9463 64.5107C48.1075 63.9627 48.351 63.4388 48.4848 62.8873C48.5945 62.4427 49.1467 61.8774 48.5053 61.5397C47.9394 61.2398 47.2706 61.3915 46.7698 61.8843C46.0804 62.5599 45.9672 63.5008 45.6551 64.3521C45.3327 65.231 45.7305 65.4999 46.6635 65.3758ZM33.8218 62.0842C33.9178 61.581 33.6537 61.4845 33.3553 61.4604C32.7688 61.4156 32.1446 61.4328 31.8633 62.0394C31.5272 62.7598 31.2905 63.5284 31.0504 64.2901C30.9441 64.6279 30.584 65.1208 31.1705 65.2896C31.685 65.4344 32.4293 65.6412 32.7311 65.0311C33.201 64.0626 33.4891 63.0045 33.8218 62.0842ZM68.1931 65.4275C69.6714 65.331 69.4485 63.9075 69.9424 63.0562C70.1688 62.6667 70.5975 62.0567 69.8807 61.7465C69.2804 61.4845 68.5704 61.5741 68.2274 62.229C67.8604 62.9321 67.6718 63.7249 67.3562 64.459C66.9618 65.3655 67.5243 65.3999 68.1931 65.4275ZM84.8455 61.8637C84.8249 61.5431 84.3001 61.6844 83.8919 61.7499C82.3553 62.0015 82.4308 63.4284 81.9918 64.4624C81.6419 65.2793 82.1495 65.4275 82.8218 65.3999C83.5078 65.3689 84.866 63.2837 84.8455 61.8637ZM22.2869 59.1615C23.6521 59.1615 24.8422 59.1856 26.0256 59.1511C26.5915 59.1339 26.9585 58.741 27.1369 58.2309C27.1986 58.0551 27.1334 57.6725 27.0271 57.6277C25.8849 57.1624 24.6776 57.4071 23.5011 57.4175C22.5854 57.4243 22.6334 58.2998 22.2869 59.1615Z"
              fill="#E21E00"/>
        <path d="M269.732 33.1047C271.619 32.119 273.649 32.5326 275.553 32.7945C276.383 32.9083 276.661 34.3559 277.134 35.3968C274.26 35.3968 271.554 35.3968 268.848 35.3968C268.662 34.7143 269.331 34.3559 269.359 33.7872C269.636 33.6424 269.702 33.3805 269.732 33.1047Z"
              fill="#E21E00"/>
        <path d="M153.211 63.2735C153.176 63.4665 153.142 63.6595 153.108 63.8526C150.333 63.8974 147.562 63.9491 144.787 63.9801C144.362 63.9835 143.796 64.0731 143.922 63.3218C144.015 62.791 143.898 62.0499 144.715 62.0396C147.38 62.012 150.045 62.012 152.707 62.0637C153.554 62.081 153.002 62.8806 153.211 63.2735Z"
              fill="#E21E00"/>
    </g>
    <defs>
        <filter id="filter0_d" x="0" y="0.081543" width="343" height="101.918" filterUnits="userSpaceOnUse"
                color-interpolation-filters="sRGB">
            <feFlood flood-opacity="0" result="BackgroundImageFix"/>
            <feColorMatrix in="SourceAlpha" type="matrix" values="0 0 0 0 0 0 0 0 0 0 0 0 0 0 0 0 0 0 127 0"/>
            <feOffset dy="2"/>
            <feGaussianBlur stdDeviation="6"/>
            <feColorMatrix type="matrix" values="0 0 0 0 1 0 0 0 0 0.95875 0 0 0 0 0.8125 0 0 0 0.58 0"/>
            <feBlend mode="normal" in2="BackgroundImageFix" result="effect1_dropShadow"/>
            <feBlend mode="normal" in="SourceGraphic" in2="effect1_dropShadow" result="shape"/>
        </filter>
    </defs>
</svg>
