<svg width="34" height="33" viewBox="0 0 34 33" fill="none"
     xmlns="http://www.w3.org/2000/svg">
    <path d="M25.7143 28.7143C25.7143 29.4174 25.1317 30 24.4286 30C23.7254 30 23.1429 29.4174 23.1429 28.7143C23.1429 28.0112 23.7254 27.4286 24.4286 27.4286C25.1317 27.4286 25.7143 28.0112 25.7143 28.7143ZM30.8571 28.7143C30.8571 29.4174 30.2746 30 29.5714 30C28.8683 30 28.2857 29.4174 28.2857 28.7143C28.2857 28.0112 28.8683 27.4286 29.5714 27.4286C30.2746 27.4286 30.8571 28.0112 30.8571 28.7143ZM33.4286 24.2143C33.4286 23.1496 32.5647 22.2857 31.5 22.2857H22.9219C22.3795 23.7723 20.9531 24.8571 19.2857 24.8571H14.1429C12.4754 24.8571 11.0491 23.7723 10.5067 22.2857H1.92857C0.863839 22.2857 0 23.1496 0 24.2143V30.6429C0 31.7076 0.863839 32.5714 1.92857 32.5714H31.5C32.5647 32.5714 33.4286 31.7076 33.4286 30.6429V24.2143ZM26.8996 11.1964C27.1004 10.7344 27 10.1719 26.6183 9.81027L17.6183 0.810266C17.3772 0.549107 17.0357 0.428571 16.7143 0.428571C16.3929 0.428571 16.0513 0.549107 15.8103 0.810266L6.81027 9.81027C6.42857 10.1719 6.32813 10.7344 6.52902 11.1964C6.72991 11.6786 7.19196 12 7.71429 12H12.8571V21C12.8571 21.7031 13.4397 22.2857 14.1429 22.2857H19.2857C19.9888 22.2857 20.5714 21.7031 20.5714 21V12H25.7143C26.2366 12 26.6987 11.6786 26.8996 11.1964Z"
          fill="#413737"/>
</svg>
